<svg xmlns="http://www.w3.org/2000/svg" xmlns:xlink="http://www.w3.org/1999/xlink" xmlns:lucid="lucid" width="1720.72" height="1240"><g transform="translate(0 -40)" lucid:page-tab-id="0_0"><path d="M0 0h1870.87v1322.83H0z" fill="#fff"/><path d="M540 66c0-3.3 2.7-6 6-6h888c3.3 0 6 2.7 6 6v1188c0 3.3-2.7 6-6 6H546c-3.3 0-6-2.7-6-6z" stroke="#5e5e5e" stroke-width="3" fill-opacity="0"/><use xlink:href="#a" transform="matrix(1,0,0,1,548,68) translate(416.78395061728395 17.77777777777778)"/><path d="M359.75 769.75c0 10.9-8.84 19.75-19.75 19.75-10.9 0-19.75-8.84-19.75-19.75 0-10.9 8.84-19.75 19.75-19.75 10.9 0 19.75 8.84 19.75 19.75z" stroke="#5e5e5e" stroke-width="3" fill="#fff"/><path d="M340 789.5v49.3c0 3.3 1.44 8.27 3.2 11.07L380 908m-40-63.2L300 908m0-98.75h80" stroke="#5e5e5e" stroke-width="3" fill="none"/><path d="M300 756c0-3.3 2.7-6 6-6h68c3.3 0 6 2.7 6 6v168c0 3.3-2.7 6-6 6h-68c-3.3 0-6-2.7-6-6z" fill="none"/><use xlink:href="#b" transform="matrix(1,0,0,1,220,908) translate(88.58024691358025 17.77777777777778)"/><path d="M1639.75 419.75c0 10.9-8.84 19.75-19.75 19.75-10.9 0-19.75-8.84-19.75-19.75 0-10.9 8.84-19.75 19.75-19.75 10.9 0 19.75 8.84 19.75 19.75z" stroke="#5e5e5e" stroke-width="3" fill="#fff"/><path d="M1620 439.5v49.3c0 3.3 1.44 8.27 3.2 11.07L1660 558m-40-63.2l-40 63.2m0-98.75h80" stroke="#5e5e5e" stroke-width="3" fill="none"/><path d="M1580 406c0-3.3 2.7-6 6-6h68c3.3 0 6 2.7 6 6v168c0 3.3-2.7 6-6 6h-68c-3.3 0-6-2.7-6-6z" fill="none"/><use xlink:href="#c" transform="matrix(1,0,0,1,1500,558) translate(41.04938271604938 17.77777777777778)"/><use xlink:href="#d" transform="matrix(1,0,0,1,1500,558) translate(102.71604938271605 17.77777777777778)"/><path d="M820 165c0 24.85-44.77 45-100 45s-100-20.15-100-45 44.77-45 100-45 100 20.15 100 45z" stroke="#5e5e5e" stroke-width="3" fill="#fff"/><use xlink:href="#e" transform="matrix(1,0,0,1,620,120) translate(55.605 36.9)"/><use xlink:href="#f" transform="matrix(1,0,0,1,620,120) translate(36.53000000000001 58.5)"/><use xlink:href="#g" transform="matrix(1,0,0,1,620,120) translate(86.53 58.5)"/><use xlink:href="#h" transform="matrix(1,0,0,1,620,120) translate(124.48 58.5)"/><path d="M359.75 219.75c0 10.9-8.84 19.75-19.75 19.75-10.9 0-19.75-8.84-19.75-19.75 0-10.9 8.84-19.75 19.75-19.75 10.9 0 19.75 8.84 19.75 19.75z" stroke="#5e5e5e" stroke-width="3" fill="#fff"/><path d="M340 239.5v49.3c0 3.3 1.44 8.27 3.2 11.07L380 358m-40-63.2L300 358m0-98.75h80" stroke="#5e5e5e" stroke-width="3" fill="none"/><path d="M300 206c0-3.3 2.7-6 6-6h68c3.3 0 6 2.7 6 6v168c0 3.3-2.7 6-6 6h-68c-3.3 0-6-2.7-6-6z" fill="none"/><use xlink:href="#i" transform="matrix(1,0,0,1,220,358) translate(57.31481481481482 17.77777777777778)"/><use xlink:href="#j" transform="matrix(1,0,0,1,220,358) translate(108.67283950617283 17.77777777777778)"/><path d="M342.62 289.6l275.3-120.4M342.64 289.6l-3.7 1.6" stroke="#5e5e5e" stroke-width="2" fill="none"/><path d="M618.82 168.8l.2 1-.73.33-.8-1.84 1.18-.53z" fill="#5e5e5e"/><path d="M1260 165c0 24.85-44.77 45-100 45s-100-20.15-100-45 44.77-45 100-45 100 20.15 100 45z" stroke="#5e5e5e" stroke-width="3" fill="#fff"/><use xlink:href="#k" transform="matrix(1,0,0,1,1060,120) translate(31.579999999999995 48.15)"/><use xlink:href="#g" transform="matrix(1,0,0,1,1060,120) translate(90.48 48.15)"/><use xlink:href="#h" transform="matrix(1,0,0,1,1060,120) translate(128.43 48.15)"/><path d="M1619.27 496.92l-357.04-331.24M1619.25 496.9l2.95 2.75" stroke="#5e5e5e" stroke-width="2" fill="none"/><path d="M1262.93 164.96l-1.36 1.47-.1-.1v-.22l.03-1.1v-.47l-.05-.94zM832.26 166h-9.76v-2h9.76zm29.27 0h-19.5v-2h19.5zm26.7 0h-16.94v-2h16.92zm148.94 0h-19.52v-2h19.52zm19.5 0h-9.75v-2h9.76zm-48.78 0h-16.12v-2h16.1z" fill="#5e5e5e"/><path d="M822.53 166h-1.05l.02-1v-.47l-.03-.53h1.06zM1058.5 165l-18.67 11.04-1.02-1.72 15.77-9.32-15.76-9.32 1.03-1.72z" fill="#5e5e5e"/><use xlink:href="#l" transform="matrix(1,0,0,1,888.2222222222222,154.33333333333334) translate(0 14.222222222222223)"/><path d="M1260 490c0 24.85-44.77 45-100 45s-100-20.15-100-45 44.77-45 100-45 100 20.15 100 45z" stroke="#5e5e5e" stroke-width="3" fill="#fff"/><use xlink:href="#m" transform="matrix(1,0,0,1,1060,445) translate(46.055 36.9)"/><use xlink:href="#n" transform="matrix(1,0,0,1,1060,445) translate(113.955 36.9)"/><use xlink:href="#o" transform="matrix(1,0,0,1,1060,445) translate(37.07999999999999 58.5)"/><use xlink:href="#p" transform="matrix(1,0,0,1,1060,445) translate(71.03 58.5)"/><path d="M1615.2 497.96l-352.7-7.94M1615.18 497.96l4.03.1" stroke="#5e5e5e" stroke-width="2" fill="none"/><path d="M1262.55 489.02l-.05 2-1.02-.02.02-1v-.47l-.03-.53z" fill="#5e5e5e"/><path d="M1120 695c0 24.85-44.77 45-100 45s-100-20.15-100-45 44.77-45 100-45 100 20.15 100 45z" stroke="#5e5e5e" stroke-width="3" fill="#fff"/><use xlink:href="#k" transform="matrix(1,0,0,1,920,650) translate(39.58 48.15)"/><use xlink:href="#q" transform="matrix(1,0,0,1,920,650) translate(98.48 48.15)"/><path d="M1400 695c0 24.85-44.77 45-100 45s-100-20.15-100-45 44.77-45 100-45 100 20.15 100 45z" stroke="#5e5e5e" stroke-width="3" fill="#fff"/><use xlink:href="#k" transform="matrix(1,0,0,1,1200,650) translate(38.05499999999999 48.15)"/><use xlink:href="#r" transform="matrix(1,0,0,1,1200,650) translate(96.955 48.15)"/><path d="M880 500c0 24.85-44.77 45-100 45s-100-20.15-100-45 44.77-45 100-45 100 20.15 100 45z" stroke="#5e5e5e" stroke-width="3" fill="#fff"/><use xlink:href="#s" transform="matrix(1,0,0,1,680,455) translate(44.05499999999999 48.15)"/><use xlink:href="#t" transform="matrix(1,0,0,1,680,455) translate(115.955 48.15)"/><path d="M890.8 491H881v-2h9.8zm26.26 0H900.6v-2h16.46zm140.44 0h-9.8v-2h9.8zm-19.6 0h-17.28v-2h17.27z" fill="#5e5e5e"/><path d="M898.87 480.68L883.1 490l15.77 9.32-1.02 1.72L879.18 490l18.67-11.04zM1058.5 490v.47l.03.53h-1.06v-2h1.05z" fill="#5e5e5e"/><use xlink:href="#l" transform="matrix(1,0,0,1,917.0632765630596,479.3333333333333) translate(0 14.222222222222223)"/><path d="M1058.9 643.12l-7.18 7.48-1.44-1.4 7.18-7.46zm21.55-22.4l-14.37 14.93-1.44-1.38 14.37-14.95zm7.18-7.5l-1.44-1.37 7.3-7.62h2.8zm35.92-37.35l-6.76 7.03H1114l8.08-8.42zm21.55-22.42l-14.37 14.95-1.44-1.4 14.35-14.94zm14.36-14.95l-7.18 7.48-1.44-1.4 7.18-7.46z" fill="#5e5e5e"/><path d="M1051.74 650.58l-.2.2-2.47-.3 1.22-1.3zM1155.02 557.6l-1.94-.45 4.2-17.82-17.64 4.9-.54-1.92 20.9-5.8z" fill="#5e5e5e"/><use xlink:href="#u" transform="matrix(1,0,0,1,1055.8436780835605,582.896047779236) translate(0 14.222222222222223)"/><path d="M1260 285c0 24.85-44.77 45-100 45s-100-20.15-100-45 44.77-45 100-45 100 20.15 100 45z" stroke="#5e5e5e" stroke-width="3" fill="#fff"/><use xlink:href="#v" transform="matrix(1,0,0,1,1060,240) translate(23.079999999999995 48.15)"/><use xlink:href="#w" transform="matrix(1,0,0,1,1060,240) translate(60.08 48.15)"/><use xlink:href="#x" transform="matrix(1,0,0,1,1060,240) translate(125.03 48.15)"/><path d="M1161 442.5h-2v-9.1h2zm0-18.2h-2v-18.2h2zm0-54.6h-2v-18.18h2zm0-27.28h-2v-9.1h2z" fill="#5e5e5e"/><path d="M1161 443.52l-1-.02h-1v-1.03h2zM1171.04 350.17l-1.72 1.02-9.32-15.77-9.32 15.76-1.72-1.03L1160 331.5z" fill="#5e5e5e"/><use xlink:href="#l" transform="matrix(1,0,0,1,1108.2222222222222,376.8333333333333) translate(0 14.222222222222223)"/><path d="M1615.35 497.47l-353-211.96M1615.33 497.46l3.45 2.07" stroke="#5e5e5e" stroke-width="2" fill="none"/><path d="M1262.9 284.67l-1.04 1.72-.4-.25v-.04l.04-1.1v-.47l-.04-.72zM1299.84 647.1l-1.25 1.56-7.66-6.13 1.25-1.56zm-15.3-12.25l-1.26 1.56-15.3-12.24 1.24-1.56zm-22.97-18.38l-1.25 1.56-15.3-12.24 1.24-1.58zm-45.94-36.74l-1.25 1.56-15.3-12.26 1.24-1.56zm-22.96-18.38l-1.25 1.56-15.3-12.23 1.24-1.57zm-22.97-18.37l-1.25 1.56-7.65-6.12 1.24-1.56z" fill="#5e5e5e"/><path d="M1301.65 648.54l-1.64-.04h-1.32l1.14-1.42zM1181.48 539.54l-.28 1.98-18.13-2.57 6.48 17.13-1.87.7-7.68-20.28z" fill="#5e5e5e"/><use xlink:href="#u" transform="matrix(1,0,0,1,1180.6913580246915,581.8333333333334) translate(0 14.222222222222223)"/><path d="M1400 885c0 24.85-44.77 45-100 45s-100-20.15-100-45 44.77-45 100-45 100 20.15 100 45z" stroke="#5e5e5e" stroke-width="3" fill="#fff"/><use xlink:href="#v" transform="matrix(1,0,0,1,1200,840) translate(50.005 36.9)"/><use xlink:href="#y" transform="matrix(1,0,0,1,1200,840) translate(87.005 36.9)"/><use xlink:href="#x" transform="matrix(1,0,0,1,1200,840) translate(74.555 58.5)"/><path d="M1301 836.68h-2v-10.46h2zm0-20.93h-2v-15.08h2zm0-36.42h-2v-15.9h2zm0-26.37h-2V742.5h2z" fill="#5e5e5e"/><path d="M1300 741.5h1v1.03h-2v-1.05zM1311.04 819.83L1300 838.5l-11.04-18.67 1.72-1.02 9.32 15.77 9.32-15.76z" fill="#5e5e5e"/><use xlink:href="#l" transform="matrix(1,0,0,1,1248.2222222222222,779.3333333333334) translate(0 14.222222222222223)"/><path d="M1619.5 498.46L1397.7 870.6M1619.47 498.5l2.07-3.47" stroke="#5e5e5e" stroke-width="2" fill="none"/><path d="M1398.58 871.1l-.8 1.3-.44-.73-.76-1.13.28-.48z" fill="#5e5e5e"/><path d="M1400 1025c0 24.85-44.77 45-100 45s-100-20.15-100-45 44.77-45 100-45 100 20.15 100 45z" stroke="#5e5e5e" stroke-width="3" fill="#fff"/><g><use xlink:href="#z" transform="matrix(1,0,0,1,1200,980) translate(23.079999999999995 48.15)"/><use xlink:href="#p" transform="matrix(1,0,0,1,1200,980) translate(84.03 48.15)"/></g><path d="M1619.62 498.53l-217.74 525.55M1619.6 498.55l1.55-3.72" stroke="#5e5e5e" stroke-width="2" fill="none"/><path d="M1402.82 1024.44l-1.54 3.7.1-.93.1-1.1.02-1.1v-.47l-.03-.65z" fill="#5e5e5e"/><path d="M1400 1165c0 24.85-44.77 45-100 45s-100-20.15-100-45 44.77-45 100-45 100 20.15 100 45z" stroke="#5e5e5e" stroke-width="3" fill="#fff"/><g><use xlink:href="#A" transform="matrix(1,0,0,1,1200,1120) translate(28.105 48.15)"/><use xlink:href="#p" transform="matrix(1,0,0,1,1200,1120) translate(79.00500000000001 48.15)"/></g><path d="M1619.7 498.56l-217.9 665.5M1619.68 498.58l1.25-3.83" stroke="#5e5e5e" stroke-width="2" fill="none"/><path d="M1402.77 1164.34l-1.25 3.82-.24-.08.1-.87.1-1.1.02-1.1v-.47l-.03-.62z" fill="#5e5e5e"/><path d="M800 825c0 24.85-44.77 45-100 45s-100-20.15-100-45 44.77-45 100-45 100 20.15 100 45z" stroke="#5e5e5e" stroke-width="3" fill="#fff"/><g><use xlink:href="#B" transform="matrix(1,0,0,1,600,780) translate(48.555 36.9)"/><use xlink:href="#C" transform="matrix(1,0,0,1,600,780) translate(47.03000000000001 58.5)"/><use xlink:href="#D" transform="matrix(1,0,0,1,600,780) translate(67.03 58.5)"/><use xlink:href="#E" transform="matrix(1,0,0,1,600,780) translate(97.03 58.5)"/></g><path d="M342.5 828.78l255-3.77M342.53 828.78l-4.03.06" stroke="#5e5e5e" stroke-width="2" fill="none"/><path d="M598.5 825v.47l.03.53-1.04.02-.04-2 1.06-.02z" fill="#5e5e5e"/><path d="M20 416c0-3.3 2.7-6 6-6h488c3.3 0 6 2.7 6 6v278c0 3.3-2.7 6-6 6H26c-3.3 0-6-2.7-6-6z" stroke="#000" stroke-opacity="0" stroke-width="3" fill="#fff" fill-opacity="0"/><g><use xlink:href="#F" transform="matrix(1,0,0,1,25,415) translate(0 17.77777777777778)"/><use xlink:href="#G" transform="matrix(1,0,0,1,25,415) translate(36.97530864197531 17.77777777777778)"/><use xlink:href="#H" transform="matrix(1,0,0,1,25,415) translate(7.222222222222221 44.44444444444444)"/><use xlink:href="#I" transform="matrix(1,0,0,1,25,415) translate(22.22222222222222 44.44444444444444)"/><use xlink:href="#J" transform="matrix(1,0,0,1,25,415) translate(78.9506172839506 44.44444444444444)"/><use xlink:href="#K" transform="matrix(1,0,0,1,25,415) translate(101.1111111111111 44.44444444444444)"/><use xlink:href="#L" transform="matrix(1,0,0,1,25,415) translate(131.9753086419753 44.44444444444444)"/><use xlink:href="#M" transform="matrix(1,0,0,1,25,415) translate(177.59259259259258 44.44444444444444)"/><use xlink:href="#N" transform="matrix(1,0,0,1,25,415) translate(202.28395061728395 44.44444444444444)"/><use xlink:href="#O" transform="matrix(1,0,0,1,25,415) translate(297.1604938271605 44.44444444444444)"/><use xlink:href="#P" transform="matrix(1,0,0,1,25,415) translate(377.28395061728395 44.44444444444444)"/><use xlink:href="#Q" transform="matrix(1,0,0,1,25,415) translate(395.8024691358025 44.44444444444444)"/><use xlink:href="#R" transform="matrix(1,0,0,1,25,415) translate(443.8888888888889 44.44444444444444)"/><use xlink:href="#S" transform="matrix(1,0,0,1,25,415) translate(22.22222222222222 71.11111111111111)"/><use xlink:href="#T" transform="matrix(1,0,0,1,25,415) translate(83.88888888888889 71.11111111111111)"/><use xlink:href="#U" transform="matrix(1,0,0,1,25,415) translate(186.2962962962963 71.11111111111111)"/><use xlink:href="#V" transform="matrix(1,0,0,1,25,415) translate(199.81481481481484 71.11111111111111)"/><use xlink:href="#W" transform="matrix(1,0,0,1,25,415) translate(212.1604938271605 71.11111111111111)"/><use xlink:href="#X" transform="matrix(1,0,0,1,25,415) translate(291.0493827160494 71.11111111111111)"/><use xlink:href="#Y" transform="matrix(1,0,0,1,25,415) translate(308.27160493827165 71.11111111111111)"/><use xlink:href="#Z" transform="matrix(1,0,0,1,25,415) translate(345.30864197530866 71.11111111111111)"/><use xlink:href="#aa" transform="matrix(1,0,0,1,25,415) translate(414.320987654321 71.11111111111111)"/><use xlink:href="#ab" transform="matrix(1,0,0,1,25,415) translate(22.22222222222222 97.77777777777777)"/><use xlink:href="#ac" transform="matrix(1,0,0,1,25,415) translate(53.08641975308642 97.77777777777777)"/><use xlink:href="#ad" transform="matrix(1,0,0,1,25,415) translate(70.30864197530863 97.77777777777777)"/><use xlink:href="#ae" transform="matrix(1,0,0,1,25,415) translate(107.34567901234567 97.77777777777777)"/><use xlink:href="#af" transform="matrix(1,0,0,1,25,415) translate(142.34567901234567 97.77777777777777)"/><use xlink:href="#ag" transform="matrix(1,0,0,1,25,415) translate(179.3827160493827 97.77777777777777)"/><use xlink:href="#H" transform="matrix(1,0,0,1,25,415) translate(7.222222222222221 124.44444444444446)"/><use xlink:href="#ah" transform="matrix(1,0,0,1,25,415) translate(22.22222222222222 124.44444444444446)"/><use xlink:href="#J" transform="matrix(1,0,0,1,25,415) translate(39.44444444444444 124.44444444444446)"/><use xlink:href="#af" transform="matrix(1,0,0,1,25,415) translate(61.60493827160494 124.44444444444446)"/><use xlink:href="#ai" transform="matrix(1,0,0,1,25,415) translate(98.64197530864197 124.44444444444446)"/><use xlink:href="#M" transform="matrix(1,0,0,1,25,415) translate(186.17283950617286 124.44444444444446)"/><use xlink:href="#N" transform="matrix(1,0,0,1,25,415) translate(210.86419753086423 124.44444444444446)"/><use xlink:href="#aj" transform="matrix(1,0,0,1,25,415) translate(305.74074074074076 124.44444444444446)"/><use xlink:href="#ak" transform="matrix(1,0,0,1,25,415) translate(373.58024691358025 124.44444444444446)"/><use xlink:href="#al" transform="matrix(1,0,0,1,25,415) translate(404.44444444444446 124.44444444444446)"/><use xlink:href="#am" transform="matrix(1,0,0,1,25,415) translate(22.22222222222222 151.11111111111111)"/><use xlink:href="#Y" transform="matrix(1,0,0,1,25,415) translate(51.85185185185185 151.11111111111111)"/><use xlink:href="#an" transform="matrix(1,0,0,1,25,415) translate(88.88888888888889 151.11111111111111)"/><use xlink:href="#U" transform="matrix(1,0,0,1,25,415) translate(151.66666666666666 151.11111111111111)"/><use xlink:href="#ao" transform="matrix(1,0,0,1,25,415) translate(165.18518518518516 151.11111111111111)"/><use xlink:href="#ap" transform="matrix(1,0,0,1,25,415) translate(196.04938271604937 151.11111111111111)"/><use xlink:href="#aq" transform="matrix(1,0,0,1,25,415) translate(238.02469135802468 151.11111111111111)"/><use xlink:href="#ar" transform="matrix(1,0,0,1,25,415) translate(284.87654320987656 151.11111111111111)"/><use xlink:href="#Y" transform="matrix(1,0,0,1,25,415) translate(363.8888888888889 151.11111111111111)"/><use xlink:href="#as" transform="matrix(1,0,0,1,25,415) translate(400.925925925926 151.11111111111111)"/><use xlink:href="#at" transform="matrix(1,0,0,1,25,415) translate(22.22222222222222 177.77777777777777)"/><use xlink:href="#H" transform="matrix(1,0,0,1,25,415) translate(7.222222222222221 204.44444444444443)"/><use xlink:href="#au" transform="matrix(1,0,0,1,25,415) translate(22.22222222222222 204.44444444444443)"/><use xlink:href="#av" transform="matrix(1,0,0,1,25,415) translate(59.25925925925926 204.44444444444443)"/><use xlink:href="#J" transform="matrix(1,0,0,1,25,415) translate(137.03703703703704 204.44444444444443)"/><use xlink:href="#aw" transform="matrix(1,0,0,1,25,415) translate(159.19753086419752 204.44444444444443)"/><use xlink:href="#ax" transform="matrix(1,0,0,1,25,415) translate(239.38271604938268 204.44444444444443)"/><use xlink:href="#am" transform="matrix(1,0,0,1,25,415) translate(374.9382716049382 204.44444444444443)"/><use xlink:href="#ay" transform="matrix(1,0,0,1,25,415) translate(404.56790123456784 204.44444444444443)"/><use xlink:href="#az" transform="matrix(1,0,0,1,25,415) translate(22.22222222222222 231.1111111111111)"/><use xlink:href="#aA" transform="matrix(1,0,0,1,25,415) translate(78.82716049382717 231.1111111111111)"/><use xlink:href="#aB" transform="matrix(1,0,0,1,25,415) translate(155.30864197530863 231.1111111111111)"/><use xlink:href="#aC" transform="matrix(1,0,0,1,25,415) translate(198.5185185185185 231.1111111111111)"/><use xlink:href="#aD" transform="matrix(1,0,0,1,25,415) translate(226.7901234567901 231.1111111111111)"/><use xlink:href="#J" transform="matrix(1,0,0,1,25,415) translate(276.1728395061728 231.1111111111111)"/><use xlink:href="#aE" transform="matrix(1,0,0,1,25,415) translate(298.3333333333333 231.1111111111111)"/><use xlink:href="#aF" transform="matrix(1,0,0,1,25,415) translate(392.037037037037 231.1111111111111)"/><use xlink:href="#ay" transform="matrix(1,0,0,1,25,415) translate(442.53086419753083 231.1111111111111)"/><use xlink:href="#aG" transform="matrix(1,0,0,1,25,415) translate(22.22222222222222 257.77777777777777)"/></g><defs><path fill="#333" d="M212-179c-10-28-35-45-73-45-59 0-87 40-87 99 0 60 29 101 89 101 43 0 62-24 78-52l27 14C228-24 195 4 139 4 59 4 22-46 18-125c-6-104 99-153 187-111 19 9 31 26 39 46" id="aH"/><path fill="#333" d="M233-177c-1 41-23 64-60 70L243 0h-38l-65-103H63V0H30v-248c88 3 205-21 203 71zM63-129c60-2 137 13 137-47 0-61-80-42-137-45v92" id="aI"/><path fill="#333" d="M240 0l2-218c-23 76-54 145-80 218h-23L58-218 59 0H30v-248h44l77 211c21-75 51-140 76-211h43V0h-30" id="aJ"/><g id="a"><use transform="matrix(0.06172839506172839,0,0,0.06172839506172839,0,0)" xlink:href="#aH"/><use transform="matrix(0.06172839506172839,0,0,0.06172839506172839,15.987654320987653,0)" xlink:href="#aI"/><use transform="matrix(0.06172839506172839,0,0,0.06172839506172839,31.975308641975307,0)" xlink:href="#aJ"/></g><path fill="#333" d="M205 0l-28-72H64L36 0H1l101-248h38L239 0h-34zm-38-99l-47-123c-12 45-31 82-46 123h93" id="aK"/><path fill="#333" d="M85-194c31 0 48 13 60 33l-1-100h32l1 261h-30c-2-10 0-23-3-31C134-8 116 4 85 4 32 4 16-35 15-94c0-66 23-100 70-100zm9 24c-40 0-46 34-46 75 0 40 6 74 45 74 42 0 51-32 51-76 0-42-9-74-50-73" id="aL"/><path fill="#333" d="M210-169c-67 3-38 105-44 169h-31v-121c0-29-5-50-35-48C34-165 62-65 56 0H25l-1-190h30c1 10-1 24 2 32 10-44 99-50 107 0 11-21 27-35 58-36 85-2 47 119 55 194h-31v-121c0-29-5-49-35-48" id="aM"/><path fill="#333" d="M24-231v-30h32v30H24zM24 0v-190h32V0H24" id="aN"/><path fill="#333" d="M117-194c89-4 53 116 60 194h-32v-121c0-31-8-49-39-48C34-167 62-67 57 0H25l-1-190h30c1 10-1 24 2 32 11-22 29-35 61-36" id="aO"/><g id="b"><use transform="matrix(0.06172839506172839,0,0,0.06172839506172839,0,0)" xlink:href="#aK"/><use transform="matrix(0.06172839506172839,0,0,0.06172839506172839,14.814814814814813,0)" xlink:href="#aL"/><use transform="matrix(0.06172839506172839,0,0,0.06172839506172839,27.160493827160494,0)" xlink:href="#aM"/><use transform="matrix(0.06172839506172839,0,0,0.06172839506172839,45.61728395061728,0)" xlink:href="#aN"/><use transform="matrix(0.06172839506172839,0,0,0.06172839506172839,50.49382716049382,0)" xlink:href="#aO"/></g><path fill="#333" d="M185-189c-5-48-123-54-124 2 14 75 158 14 163 119 3 78-121 87-175 55-17-10-28-26-33-46l33-7c5 56 141 63 141-1 0-78-155-14-162-118-5-82 145-84 179-34 5 7 8 16 11 25" id="aP"/><path fill="#333" d="M141-36C126-15 110 5 73 4 37 3 15-17 15-53c-1-64 63-63 125-63 3-35-9-54-41-54-24 1-41 7-42 31l-33-3c5-37 33-52 76-52 45 0 72 20 72 64v82c-1 20 7 32 28 27v20c-31 9-61-2-59-35zM48-53c0 20 12 33 32 33 41-3 63-29 60-74-43 2-92-5-92 41" id="aQ"/><path fill="#333" d="M24 0v-261h32V0H24" id="aR"/><path fill="#333" d="M100-194c63 0 86 42 84 106H49c0 40 14 67 53 68 26 1 43-12 49-29l28 8c-11 28-37 45-77 45C44 4 14-33 15-96c1-61 26-98 85-98zm52 81c6-60-76-77-97-28-3 7-6 17-6 28h103" id="aS"/><path fill="#333" d="M135-143c-3-34-86-38-87 0 15 53 115 12 119 90S17 21 10-45l28-5c4 36 97 45 98 0-10-56-113-15-118-90-4-57 82-63 122-42 12 7 21 19 24 35" id="aT"/><g id="c"><use transform="matrix(0.06172839506172839,0,0,0.06172839506172839,0,0)" xlink:href="#aP"/><use transform="matrix(0.06172839506172839,0,0,0.06172839506172839,14.814814814814813,0)" xlink:href="#aQ"/><use transform="matrix(0.06172839506172839,0,0,0.06172839506172839,27.160493827160494,0)" xlink:href="#aR"/><use transform="matrix(0.06172839506172839,0,0,0.06172839506172839,32.03703703703704,0)" xlink:href="#aS"/><use transform="matrix(0.06172839506172839,0,0,0.06172839506172839,44.382716049382715,0)" xlink:href="#aT"/></g><path fill="#333" d="M100-194c62-1 85 37 85 99 1 63-27 99-86 99S16-35 15-95c0-66 28-99 85-99zM99-20c44 1 53-31 53-75 0-43-8-75-51-75s-53 32-53 75 10 74 51 75" id="aU"/><path fill="#333" d="M96-169c-40 0-48 33-48 73s9 75 48 75c24 0 41-14 43-38l32 2c-6 37-31 61-74 61-59 0-76-41-82-99-10-93 101-131 147-64 4 7 5 14 7 22l-32 3c-4-21-16-35-41-35" id="aV"/><path fill="#333" d="M59-47c-2 24 18 29 38 22v24C64 9 27 4 27-40v-127H5v-23h24l9-43h21v43h35v23H59v120" id="aW"/><g id="d"><use transform="matrix(0.06172839506172839,0,0,0.06172839506172839,0,0)" xlink:href="#aK"/><use transform="matrix(0.06172839506172839,0,0,0.06172839506172839,14.814814814814813,0)" xlink:href="#aT"/><use transform="matrix(0.06172839506172839,0,0,0.06172839506172839,25.925925925925924,0)" xlink:href="#aT"/><use transform="matrix(0.06172839506172839,0,0,0.06172839506172839,37.03703703703704,0)" xlink:href="#aU"/><use transform="matrix(0.06172839506172839,0,0,0.06172839506172839,49.382716049382715,0)" xlink:href="#aV"/><use transform="matrix(0.06172839506172839,0,0,0.06172839506172839,60.49382716049382,0)" xlink:href="#aN"/><use transform="matrix(0.06172839506172839,0,0,0.06172839506172839,65.37037037037037,0)" xlink:href="#aQ"/><use transform="matrix(0.06172839506172839,0,0,0.06172839506172839,77.71604938271605,0)" xlink:href="#aW"/><use transform="matrix(0.06172839506172839,0,0,0.06172839506172839,83.88888888888889,0)" xlink:href="#aS"/></g><path d="M190 0L58-211 59 0H30v-248h39L202-35l-2-213h31V0h-41" id="aX"/><path d="M100-194c62-1 85 37 85 99 1 63-27 99-86 99S16-35 15-95c0-66 28-99 85-99zM99-20c44 1 53-31 53-75 0-43-8-75-51-75s-53 32-53 75 10 74 51 75" id="aY"/><path d="M59-47c-2 24 18 29 38 22v24C64 9 27 4 27-40v-127H5v-23h24l9-43h21v43h35v23H59v120" id="aZ"/><path d="M24-231v-30h32v30H24zM24 0v-190h32V0H24" id="ba"/><path d="M101-234c-31-9-42 10-38 44h38v23H63V0H32v-167H5v-23h27c-7-52 17-82 69-68v24" id="bb"/><path d="M96-169c-40 0-48 33-48 73s9 75 48 75c24 0 41-14 43-38l32 2c-6 37-31 61-74 61-59 0-76-41-82-99-10-93 101-131 147-64 4 7 5 14 7 22l-32 3c-4-21-16-35-41-35" id="bc"/><path d="M141-36C126-15 110 5 73 4 37 3 15-17 15-53c-1-64 63-63 125-63 3-35-9-54-41-54-24 1-41 7-42 31l-33-3c5-37 33-52 76-52 45 0 72 20 72 64v82c-1 20 7 32 28 27v20c-31 9-61-2-59-35zM48-53c0 20 12 33 32 33 41-3 63-29 60-74-43 2-92-5-92 41" id="bd"/><path d="M117-194c89-4 53 116 60 194h-32v-121c0-31-8-49-39-48C34-167 62-67 57 0H25l-1-190h30c1 10-1 24 2 32 11-22 29-35 61-36" id="be"/><g id="e"><use transform="matrix(0.05,0,0,0.05,0,0)" xlink:href="#aX"/><use transform="matrix(0.05,0,0,0.05,12.950000000000001,0)" xlink:href="#aY"/><use transform="matrix(0.05,0,0,0.05,22.950000000000003,0)" xlink:href="#aZ"/><use transform="matrix(0.05,0,0,0.05,27.950000000000003,0)" xlink:href="#ba"/><use transform="matrix(0.05,0,0,0.05,31.900000000000002,0)" xlink:href="#bb"/><use transform="matrix(0.05,0,0,0.05,36.900000000000006,0)" xlink:href="#ba"/><use transform="matrix(0.05,0,0,0.05,40.85000000000001,0)" xlink:href="#bc"/><use transform="matrix(0.05,0,0,0.05,49.85000000000001,0)" xlink:href="#bd"/><use transform="matrix(0.05,0,0,0.05,59.85,0)" xlink:href="#aZ"/><use transform="matrix(0.05,0,0,0.05,64.85000000000001,0)" xlink:href="#ba"/><use transform="matrix(0.05,0,0,0.05,68.80000000000001,0)" xlink:href="#aY"/><use transform="matrix(0.05,0,0,0.05,78.80000000000001,0)" xlink:href="#be"/></g><path d="M115-194c53 0 69 39 70 98 0 66-23 100-70 100C84 3 66-7 56-30L54 0H23l1-261h32v101c10-23 28-34 59-34zm-8 174c40 0 45-34 45-75 0-40-5-75-45-74-42 0-51 32-51 76 0 43 10 73 51 73" id="bf"/><path d="M84 4C-5 8 30-112 23-190h32v120c0 31 7 50 39 49 72-2 45-101 50-169h31l1 190h-30c-1-10 1-25-2-33-11 22-28 36-60 37" id="bg"/><g id="f"><use transform="matrix(0.05,0,0,0.05,0,0)" xlink:href="#bd"/><use transform="matrix(0.05,0,0,0.05,10,0)" xlink:href="#bf"/><use transform="matrix(0.05,0,0,0.05,20,0)" xlink:href="#aY"/><use transform="matrix(0.05,0,0,0.05,30,0)" xlink:href="#bg"/><use transform="matrix(0.05,0,0,0.05,40,0)" xlink:href="#aZ"/></g><path d="M100-194c63 0 86 42 84 106H49c0 40 14 67 53 68 26 1 43-12 49-29l28 8c-11 28-37 45-77 45C44 4 14-33 15-96c1-61 26-98 85-98zm52 81c6-60-76-77-97-28-3 7-6 17-6 28h103" id="bh"/><path d="M206 0h-36l-40-164L89 0H53L-1-190h32L70-26l43-164h34l41 164 42-164h31" id="bi"/><g id="g"><use transform="matrix(0.05,0,0,0.05,0,0)" xlink:href="#be"/><use transform="matrix(0.05,0,0,0.05,10,0)" xlink:href="#bh"/><use transform="matrix(0.05,0,0,0.05,20,0)" xlink:href="#bi"/></g><path d="M30 0v-248h33v221h125V0H30" id="bj"/><path d="M85-194c31 0 48 13 60 33l-1-100h32l1 261h-30c-2-10 0-23-3-31C134-8 116 4 85 4 32 4 16-35 15-94c0-66 23-100 70-100zm9 24c-40 0-46 34-46 75 0 40 6 74 45 74 42 0 51-32 51-76 0-42-9-74-50-73" id="bk"/><g id="h"><use transform="matrix(0.05,0,0,0.05,0,0)" xlink:href="#bj"/><use transform="matrix(0.05,0,0,0.05,10,0)" xlink:href="#bh"/><use transform="matrix(0.05,0,0,0.05,20,0)" xlink:href="#bd"/><use transform="matrix(0.05,0,0,0.05,30,0)" xlink:href="#bk"/></g><path fill="#333" d="M266 0h-40l-56-210L115 0H75L2-248h35L96-30l15-64 43-154h32l59 218 59-218h35" id="bl"/><path fill="#333" d="M115-194c53 0 69 39 70 98 0 66-23 100-70 100C84 3 66-7 56-30L54 0H23l1-261h32v101c10-23 28-34 59-34zm-8 174c40 0 45-34 45-75 0-40-5-75-45-74-42 0-51 32-51 76 0 43 10 73 51 73" id="bm"/><g id="i"><use transform="matrix(0.06172839506172839,0,0,0.06172839506172839,0,0)" xlink:href="#bl"/><use transform="matrix(0.06172839506172839,0,0,0.06172839506172839,20.493827160493826,0)" xlink:href="#aS"/><use transform="matrix(0.06172839506172839,0,0,0.06172839506172839,32.839506172839506,0)" xlink:href="#bm"/></g><path fill="#333" d="M179-190L93 31C79 59 56 82 12 73V49c39 6 53-20 64-50L1-190h34L92-34l54-156h33" id="bn"/><g id="j"><use transform="matrix(0.06172839506172839,0,0,0.06172839506172839,0,0)" xlink:href="#aP"/><use transform="matrix(0.06172839506172839,0,0,0.06172839506172839,14.814814814814813,0)" xlink:href="#bn"/><use transform="matrix(0.06172839506172839,0,0,0.06172839506172839,25.925925925925924,0)" xlink:href="#aT"/><use transform="matrix(0.06172839506172839,0,0,0.06172839506172839,37.03703703703704,0)" xlink:href="#aW"/><use transform="matrix(0.06172839506172839,0,0,0.06172839506172839,43.20987654320988,0)" xlink:href="#aS"/><use transform="matrix(0.06172839506172839,0,0,0.06172839506172839,55.55555555555556,0)" xlink:href="#aM"/></g><path d="M212-179c-10-28-35-45-73-45-59 0-87 40-87 99 0 60 29 101 89 101 43 0 62-24 78-52l27 14C228-24 195 4 139 4 59 4 22-46 18-125c-6-104 99-153 187-111 19 9 31 26 39 46" id="bo"/><path d="M114-163C36-179 61-72 57 0H25l-1-190h30c1 12-1 29 2 39 6-27 23-49 58-41v29" id="bp"/><g id="k"><use transform="matrix(0.05,0,0,0.05,0,0)" xlink:href="#bo"/><use transform="matrix(0.05,0,0,0.05,12.950000000000001,0)" xlink:href="#bp"/><use transform="matrix(0.05,0,0,0.05,18.900000000000002,0)" xlink:href="#bh"/><use transform="matrix(0.05,0,0,0.05,28.900000000000002,0)" xlink:href="#bd"/><use transform="matrix(0.05,0,0,0.05,38.900000000000006,0)" xlink:href="#aZ"/><use transform="matrix(0.05,0,0,0.05,43.900000000000006,0)" xlink:href="#bh"/></g><path fill="#333" d="M15-91v-56l181-69v40L49-119l147 57v40" id="bq"/><path fill="#333" d="M25-224v-37h50v37H25zM25 0v-190h50V0H25" id="br"/><path fill="#333" d="M135-194c87-1 58 113 63 194h-50c-7-57 23-157-34-157-59 0-34 97-39 157H25l-1-190h47c2 12-1 28 3 38 12-26 28-41 61-42" id="bs"/><path fill="#333" d="M190-63c-7 42-38 67-86 67-59 0-84-38-90-98-12-110 154-137 174-36l-49 2c-2-19-15-32-35-32-30 0-35 28-38 64-6 74 65 87 74 30" id="bt"/><path fill="#333" d="M25 0v-261h50V0H25" id="bu"/><path fill="#333" d="M85 4C-2 5 27-109 22-190h50c7 57-23 150 33 157 60-5 35-97 40-157h50l1 190h-47c-2-12 1-28-3-38-12 25-28 42-61 42" id="bv"/><path fill="#333" d="M88-194c31-1 46 15 58 34l-1-101h50l1 261h-48c-2-10 0-23-3-31C134-8 116 4 84 4 32 4 16-41 15-95c0-56 19-97 73-99zm17 164c33 0 40-30 41-66 1-37-9-64-41-64s-38 30-39 65c0 43 13 65 39 65" id="bw"/><path fill="#333" d="M185-48c-13 30-37 53-82 52C43 2 14-33 14-96s30-98 90-98c62 0 83 45 84 108H66c0 31 8 55 39 56 18 0 30-7 34-22zm-45-69c5-46-57-63-70-21-2 6-4 13-4 21h74" id="bx"/><path fill="#333" d="M15-22v-40l146-57-146-57v-40l181 69v56" id="by"/><g id="l"><use transform="matrix(0.04938271604938272,0,0,0.04938271604938272,0,0)" xlink:href="#bq"/><use transform="matrix(0.04938271604938272,0,0,0.04938271604938272,10.370370370370372,0)" xlink:href="#bq"/><use transform="matrix(0.04938271604938272,0,0,0.04938271604938272,20.740740740740744,0)" xlink:href="#br"/><use transform="matrix(0.04938271604938272,0,0,0.04938271604938272,25.679012345679016,0)" xlink:href="#bs"/><use transform="matrix(0.04938271604938272,0,0,0.04938271604938272,36.49382716049383,0)" xlink:href="#bt"/><use transform="matrix(0.04938271604938272,0,0,0.04938271604938272,46.370370370370374,0)" xlink:href="#bu"/><use transform="matrix(0.04938271604938272,0,0,0.04938271604938272,51.308641975308646,0)" xlink:href="#bv"/><use transform="matrix(0.04938271604938272,0,0,0.04938271604938272,62.12345679012346,0)" xlink:href="#bw"/><use transform="matrix(0.04938271604938272,0,0,0.04938271604938272,72.93827160493828,0)" xlink:href="#bx"/><use transform="matrix(0.04938271604938272,0,0,0.04938271604938272,82.81481481481482,0)" xlink:href="#by"/><use transform="matrix(0.04938271604938272,0,0,0.04938271604938272,93.18518518518519,0)" xlink:href="#by"/></g><path d="M108 0H70L1-190h34L89-25l56-165h34" id="bz"/><g id="m"><use transform="matrix(0.05,0,0,0.05,0,0)" xlink:href="#bo"/><use transform="matrix(0.05,0,0,0.05,12.950000000000001,0)" xlink:href="#aY"/><use transform="matrix(0.05,0,0,0.05,22.950000000000003,0)" xlink:href="#be"/><use transform="matrix(0.05,0,0,0.05,32.95,0)" xlink:href="#bz"/><use transform="matrix(0.05,0,0,0.05,41.95,0)" xlink:href="#bh"/><use transform="matrix(0.05,0,0,0.05,51.95,0)" xlink:href="#bp"/><use transform="matrix(0.05,0,0,0.05,57.900000000000006,0)" xlink:href="#aZ"/></g><g id="n"><use transform="matrix(0.05,0,0,0.05,0,0)" xlink:href="#bj"/><use transform="matrix(0.05,0,0,0.05,10,0)" xlink:href="#bh"/><use transform="matrix(0.05,0,0,0.05,20,0)" xlink:href="#bd"/><use transform="matrix(0.05,0,0,0.05,30,0)" xlink:href="#bk"/></g><g id="o"><use transform="matrix(0.05,0,0,0.05,0,0)" xlink:href="#ba"/><use transform="matrix(0.05,0,0,0.05,3.95,0)" xlink:href="#be"/><use transform="matrix(0.05,0,0,0.05,13.949999999999998,0)" xlink:href="#aZ"/><use transform="matrix(0.05,0,0,0.05,18.95,0)" xlink:href="#aY"/></g><path d="M140-251c81 0 123 46 123 126C263-46 219 4 140 4 59 4 17-45 17-125s42-126 123-126zm0 227c63 0 89-41 89-101s-29-99-89-99c-61 0-89 39-89 99S79-25 140-24" id="bA"/><path d="M115-194c55 1 70 41 70 98S169 2 115 4C84 4 66-9 55-30l1 105H24l-1-265h31l2 30c10-21 28-34 59-34zm-8 174c40 0 45-34 45-75s-6-73-45-74c-42 0-51 32-51 76 0 43 10 73 51 73" id="bB"/><path d="M179-190L93 31C79 59 56 82 12 73V49c39 6 53-20 64-50L1-190h34L92-34l54-156h33" id="bC"/><g id="p"><use transform="matrix(0.05,0,0,0.05,0,0)" xlink:href="#bA"/><use transform="matrix(0.05,0,0,0.05,14,0)" xlink:href="#bB"/><use transform="matrix(0.05,0,0,0.05,24,0)" xlink:href="#bB"/><use transform="matrix(0.05,0,0,0.05,34,0)" xlink:href="#aY"/><use transform="matrix(0.05,0,0,0.05,44,0)" xlink:href="#bp"/><use transform="matrix(0.05,0,0,0.05,49.95,0)" xlink:href="#aZ"/><use transform="matrix(0.05,0,0,0.05,54.95,0)" xlink:href="#bg"/><use transform="matrix(0.05,0,0,0.05,64.95,0)" xlink:href="#be"/><use transform="matrix(0.05,0,0,0.05,74.95,0)" xlink:href="#ba"/><use transform="matrix(0.05,0,0,0.05,78.9,0)" xlink:href="#aZ"/><use transform="matrix(0.05,0,0,0.05,83.9,0)" xlink:href="#bC"/></g><g id="q"><use transform="matrix(0.05,0,0,0.05,0,0)" xlink:href="#bo"/><use transform="matrix(0.05,0,0,0.05,12.950000000000001,0)" xlink:href="#aY"/><use transform="matrix(0.05,0,0,0.05,22.950000000000003,0)" xlink:href="#be"/><use transform="matrix(0.05,0,0,0.05,32.95,0)" xlink:href="#aZ"/><use transform="matrix(0.05,0,0,0.05,37.95,0)" xlink:href="#bd"/><use transform="matrix(0.05,0,0,0.05,47.95,0)" xlink:href="#bc"/><use transform="matrix(0.05,0,0,0.05,56.95,0)" xlink:href="#aZ"/></g><path d="M205 0l-28-72H64L36 0H1l101-248h38L239 0h-34zm-38-99l-47-123c-12 45-31 82-46 123h93" id="bD"/><g id="r"><use transform="matrix(0.05,0,0,0.05,0,0)" xlink:href="#bD"/><use transform="matrix(0.05,0,0,0.05,12,0)" xlink:href="#bc"/><use transform="matrix(0.05,0,0,0.05,21,0)" xlink:href="#bc"/><use transform="matrix(0.05,0,0,0.05,30,0)" xlink:href="#aY"/><use transform="matrix(0.05,0,0,0.05,40,0)" xlink:href="#bg"/><use transform="matrix(0.05,0,0,0.05,50,0)" xlink:href="#be"/><use transform="matrix(0.05,0,0,0.05,60,0)" xlink:href="#aZ"/></g><path d="M233-177c-1 41-23 64-60 70L243 0h-38l-65-103H63V0H30v-248c88 3 205-21 203 71zM63-129c60-2 137 13 137-47 0-61-80-42-137-45v92" id="bE"/><path d="M210-169c-67 3-38 105-44 169h-31v-121c0-29-5-50-35-48C34-165 62-65 56 0H25l-1-190h30c1 10-1 24 2 32 10-44 99-50 107 0 11-21 27-35 58-36 85-2 47 119 55 194h-31v-121c0-29-5-49-35-48" id="bF"/><g id="s"><use transform="matrix(0.05,0,0,0.05,0,0)" xlink:href="#bE"/><use transform="matrix(0.05,0,0,0.05,12.950000000000001,0)" xlink:href="#bh"/><use transform="matrix(0.05,0,0,0.05,22.950000000000003,0)" xlink:href="#bF"/><use transform="matrix(0.05,0,0,0.05,37.900000000000006,0)" xlink:href="#aY"/><use transform="matrix(0.05,0,0,0.05,47.900000000000006,0)" xlink:href="#bz"/><use transform="matrix(0.05,0,0,0.05,56.900000000000006,0)" xlink:href="#bh"/></g><g id="t"><use transform="matrix(0.05,0,0,0.05,0,0)" xlink:href="#bj"/><use transform="matrix(0.05,0,0,0.05,10,0)" xlink:href="#bh"/><use transform="matrix(0.05,0,0,0.05,20,0)" xlink:href="#bd"/><use transform="matrix(0.05,0,0,0.05,30,0)" xlink:href="#bk"/></g><path fill="#333" d="M144 0l-44-69L55 0H2l70-98-66-92h53l41 62 40-62h54l-67 91 71 99h-54" id="bG"/><path fill="#333" d="M115-3C79 11 28 4 28-45v-112H4v-33h27l15-45h31v45h36v33H77v99c-1 23 16 31 38 25v30" id="bH"/><g id="u"><use transform="matrix(0.04938271604938272,0,0,0.04938271604938272,0,0)" xlink:href="#bq"/><use transform="matrix(0.04938271604938272,0,0,0.04938271604938272,10.370370370370372,0)" xlink:href="#bq"/><use transform="matrix(0.04938271604938272,0,0,0.04938271604938272,20.740740740740744,0)" xlink:href="#bx"/><use transform="matrix(0.04938271604938272,0,0,0.04938271604938272,30.617283950617285,0)" xlink:href="#bG"/><use transform="matrix(0.04938271604938272,0,0,0.04938271604938272,40.49382716049384,0)" xlink:href="#bH"/><use transform="matrix(0.04938271604938272,0,0,0.04938271604938272,46.37037037037038,0)" xlink:href="#bx"/><use transform="matrix(0.04938271604938272,0,0,0.04938271604938272,56.24691358024693,0)" xlink:href="#bs"/><use transform="matrix(0.04938271604938272,0,0,0.04938271604938272,67.06172839506173,0)" xlink:href="#bw"/><use transform="matrix(0.04938271604938272,0,0,0.04938271604938272,77.87654320987654,0)" xlink:href="#by"/><use transform="matrix(0.04938271604938272,0,0,0.04938271604938272,88.24691358024691,0)" xlink:href="#by"/></g><g id="v"><use transform="matrix(0.05,0,0,0.05,0,0)" xlink:href="#bD"/><use transform="matrix(0.05,0,0,0.05,12,0)" xlink:href="#bk"/><use transform="matrix(0.05,0,0,0.05,22,0)" xlink:href="#bk"/></g><g id="w"><use transform="matrix(0.05,0,0,0.05,0,0)" xlink:href="#bB"/><use transform="matrix(0.05,0,0,0.05,10,0)" xlink:href="#bp"/><use transform="matrix(0.05,0,0,0.05,15.949999999999998,0)" xlink:href="#aY"/><use transform="matrix(0.05,0,0,0.05,25.950000000000003,0)" xlink:href="#bk"/><use transform="matrix(0.05,0,0,0.05,35.95,0)" xlink:href="#bg"/><use transform="matrix(0.05,0,0,0.05,45.95,0)" xlink:href="#bc"/><use transform="matrix(0.05,0,0,0.05,54.95,0)" xlink:href="#aZ"/></g><path d="M24 0v-261h32V0H24" id="bI"/><path d="M135-143c-3-34-86-38-87 0 15 53 115 12 119 90S17 21 10-45l28-5c4 36 97 45 98 0-10-56-113-15-118-90-4-57 82-63 122-42 12 7 21 19 24 35" id="bJ"/><g id="x"><use transform="matrix(0.05,0,0,0.05,0,0)" xlink:href="#bk"/><use transform="matrix(0.05,0,0,0.05,10,0)" xlink:href="#bh"/><use transform="matrix(0.05,0,0,0.05,20,0)" xlink:href="#aZ"/><use transform="matrix(0.05,0,0,0.05,25,0)" xlink:href="#bd"/><use transform="matrix(0.05,0,0,0.05,35,0)" xlink:href="#ba"/><use transform="matrix(0.05,0,0,0.05,38.95,0)" xlink:href="#bI"/><use transform="matrix(0.05,0,0,0.05,42.900000000000006,0)" xlink:href="#bJ"/></g><g id="y"><use transform="matrix(0.05,0,0,0.05,0,0)" xlink:href="#bd"/><use transform="matrix(0.05,0,0,0.05,10,0)" xlink:href="#bc"/><use transform="matrix(0.05,0,0,0.05,19,0)" xlink:href="#bc"/><use transform="matrix(0.05,0,0,0.05,28,0)" xlink:href="#aY"/><use transform="matrix(0.05,0,0,0.05,38,0)" xlink:href="#bg"/><use transform="matrix(0.05,0,0,0.05,48,0)" xlink:href="#be"/><use transform="matrix(0.05,0,0,0.05,58,0)" xlink:href="#aZ"/></g><path d="M106-169C34-169 62-67 57 0H25v-261h32l-1 103c12-21 28-36 61-36 89 0 53 116 60 194h-32v-121c2-32-8-49-39-48" id="bK"/><path d="M143 0L79-87 56-68V0H24v-261h32v163l83-92h37l-77 82L181 0h-38" id="bL"/><g id="z"><use transform="matrix(0.05,0,0,0.05,0,0)" xlink:href="#bo"/><use transform="matrix(0.05,0,0,0.05,12.950000000000001,0)" xlink:href="#bK"/><use transform="matrix(0.05,0,0,0.05,22.950000000000003,0)" xlink:href="#bh"/><use transform="matrix(0.05,0,0,0.05,32.95,0)" xlink:href="#bc"/><use transform="matrix(0.05,0,0,0.05,41.95,0)" xlink:href="#bL"/></g><g id="A"><use transform="matrix(0.05,0,0,0.05,0,0)" xlink:href="#bo"/><use transform="matrix(0.05,0,0,0.05,12.950000000000001,0)" xlink:href="#bI"/><use transform="matrix(0.05,0,0,0.05,16.900000000000002,0)" xlink:href="#aY"/><use transform="matrix(0.05,0,0,0.05,26.900000000000002,0)" xlink:href="#bJ"/><use transform="matrix(0.05,0,0,0.05,35.900000000000006,0)" xlink:href="#bh"/></g><path d="M240 0l2-218c-23 76-54 145-80 218h-23L58-218 59 0H30v-248h44l77 211c21-75 51-140 76-211h43V0h-30" id="bM"/><g id="B"><use transform="matrix(0.05,0,0,0.05,0,0)" xlink:href="#bM"/><use transform="matrix(0.05,0,0,0.05,14.950000000000001,0)" xlink:href="#bd"/><use transform="matrix(0.05,0,0,0.05,24.950000000000003,0)" xlink:href="#ba"/><use transform="matrix(0.05,0,0,0.05,28.900000000000002,0)" xlink:href="#be"/><use transform="matrix(0.05,0,0,0.05,38.900000000000006,0)" xlink:href="#aZ"/><use transform="matrix(0.05,0,0,0.05,43.900000000000006,0)" xlink:href="#bh"/><use transform="matrix(0.05,0,0,0.05,53.900000000000006,0)" xlink:href="#be"/><use transform="matrix(0.05,0,0,0.05,63.900000000000006,0)" xlink:href="#bd"/><use transform="matrix(0.05,0,0,0.05,73.9,0)" xlink:href="#be"/><use transform="matrix(0.05,0,0,0.05,83.9,0)" xlink:href="#bc"/><use transform="matrix(0.05,0,0,0.05,92.9,0)" xlink:href="#bh"/></g><g id="C"><use transform="matrix(0.05,0,0,0.05,0,0)" xlink:href="#aY"/><use transform="matrix(0.05,0,0,0.05,10,0)" xlink:href="#bb"/></g><g id="D"><use transform="matrix(0.05,0,0,0.05,0,0)" xlink:href="#aZ"/><use transform="matrix(0.05,0,0,0.05,5,0)" xlink:href="#bK"/><use transform="matrix(0.05,0,0,0.05,15,0)" xlink:href="#bh"/></g><g id="E"><use transform="matrix(0.05,0,0,0.05,0,0)" xlink:href="#bJ"/><use transform="matrix(0.05,0,0,0.05,9,0)" xlink:href="#bC"/><use transform="matrix(0.05,0,0,0.05,18,0)" xlink:href="#bJ"/><use transform="matrix(0.05,0,0,0.05,27,0)" xlink:href="#aZ"/><use transform="matrix(0.05,0,0,0.05,32,0)" xlink:href="#bh"/><use transform="matrix(0.05,0,0,0.05,42,0)" xlink:href="#bF"/></g><path fill="#333" d="M230 0l2-204L168 0h-37L68-204 70 0H24v-248h70l56 185 57-185h69V0h-46" id="bN"/><path fill="#333" d="M123 10C108 53 80 86 19 72V37c35 8 53-11 59-39L3-190h52l48 148c12-52 28-100 44-148h51" id="bO"/><g id="F"><use transform="matrix(0.06172839506172839,0,0,0.06172839506172839,0,0)" xlink:href="#bN"/><use transform="matrix(0.06172839506172839,0,0,0.06172839506172839,18.456790123456788,0)" xlink:href="#bO"/></g><path fill="#333" d="M199 0l-22-63H83L61 0H9l90-248h61L250 0h-51zm-33-102l-36-108c-10 38-24 72-36 108h72" id="bP"/><path fill="#333" d="M137-138c1-29-70-34-71-4 15 46 118 7 119 86 1 83-164 76-172 9l43-7c4 19 20 25 44 25 33 8 57-30 24-41C81-84 22-81 20-136c-2-80 154-74 161-7" id="bQ"/><path fill="#333" d="M220-157c-53 9-28 100-34 157h-49v-107c1-27-5-49-29-50C55-147 81-57 75 0H25l-1-190h47c2 12-1 28 3 38 10-53 101-56 108 0 13-22 24-43 59-42 82 1 51 116 57 194h-49v-107c-1-25-5-48-29-50" id="bR"/><path fill="#333" d="M135-194c53 0 70 44 70 98 0 56-19 98-73 100-31 1-45-17-59-34 3 33 2 69 2 105H25l-1-265h48c2 10 0 23 3 31 11-24 29-35 60-35zM114-30c33 0 39-31 40-66 0-38-9-64-40-64-56 0-55 130 0 130" id="bS"/><path fill="#333" d="M110-194c64 0 96 36 96 99 0 64-35 99-97 99-61 0-95-36-95-99 0-62 34-99 96-99zm-1 164c35 0 45-28 45-65 0-40-10-65-43-65-34 0-45 26-45 65 0 36 10 65 43 65" id="bT"/><path fill="#333" d="M35-132v-50h50v50H35zM35 0v-49h50V0H35" id="bU"/><g id="G"><use transform="matrix(0.06172839506172839,0,0,0.06172839506172839,0,0)" xlink:href="#bP"/><use transform="matrix(0.06172839506172839,0,0,0.06172839506172839,15.987654320987653,0)" xlink:href="#bQ"/><use transform="matrix(0.06172839506172839,0,0,0.06172839506172839,28.333333333333332,0)" xlink:href="#bQ"/><use transform="matrix(0.06172839506172839,0,0,0.06172839506172839,40.67901234567901,0)" xlink:href="#bv"/><use transform="matrix(0.06172839506172839,0,0,0.06172839506172839,54.19753086419753,0)" xlink:href="#bR"/><use transform="matrix(0.06172839506172839,0,0,0.06172839506172839,73.95061728395062,0)" xlink:href="#bS"/><use transform="matrix(0.06172839506172839,0,0,0.06172839506172839,87.46913580246914,0)" xlink:href="#bH"/><use transform="matrix(0.06172839506172839,0,0,0.06172839506172839,94.81481481481482,0)" xlink:href="#br"/><use transform="matrix(0.06172839506172839,0,0,0.06172839506172839,100.98765432098766,0)" xlink:href="#bT"/><use transform="matrix(0.06172839506172839,0,0,0.06172839506172839,114.50617283950618,0)" xlink:href="#bs"/><use transform="matrix(0.06172839506172839,0,0,0.06172839506172839,128.02469135802468,0)" xlink:href="#bQ"/><use transform="matrix(0.06172839506172839,0,0,0.06172839506172839,140.37037037037035,0)" xlink:href="#bU"/></g><path fill="#333" d="M62-168c30 0 50 19 50 48S92-70 62-70c-29 0-48-21-48-50s20-48 48-48" id="bV"/><use transform="matrix(0.06172839506172839,0,0,0.06172839506172839,0,0)" xlink:href="#bV" id="H"/><path fill="#333" d="M106-169C34-169 62-67 57 0H25v-261h32l-1 103c12-21 28-36 61-36 89 0 53 116 60 194h-32v-121c2-32-8-49-39-48" id="bW"/><path fill="#333" d="M114-163C36-179 61-72 57 0H25l-1-190h30c1 12-1 29 2 39 6-27 23-49 58-41v29" id="bX"/><g id="I"><use transform="matrix(0.06172839506172839,0,0,0.06172839506172839,0,0)" xlink:href="#aW"/><use transform="matrix(0.06172839506172839,0,0,0.06172839506172839,6.172839506172839,0)" xlink:href="#bW"/><use transform="matrix(0.06172839506172839,0,0,0.06172839506172839,18.51851851851852,0)" xlink:href="#aS"/><use transform="matrix(0.06172839506172839,0,0,0.06172839506172839,30.864197530864196,0)" xlink:href="#bX"/><use transform="matrix(0.06172839506172839,0,0,0.06172839506172839,38.20987654320987,0)" xlink:href="#aS"/></g><g id="J"><use transform="matrix(0.06172839506172839,0,0,0.06172839506172839,0,0)" xlink:href="#aN"/><use transform="matrix(0.06172839506172839,0,0,0.06172839506172839,4.876543209876543,0)" xlink:href="#aT"/></g><g id="K"><use transform="matrix(0.06172839506172839,0,0,0.06172839506172839,0,0)" xlink:href="#aO"/><use transform="matrix(0.06172839506172839,0,0,0.06172839506172839,12.345679012345679,0)" xlink:href="#aU"/></g><path fill="#333" d="M206 0h-36l-40-164L89 0H53L-1-190h32L70-26l43-164h34l41 164 42-164h31" id="bY"/><g id="L"><use transform="matrix(0.06172839506172839,0,0,0.06172839506172839,0,0)" xlink:href="#bY"/><use transform="matrix(0.06172839506172839,0,0,0.06172839506172839,15.987654320987653,0)" xlink:href="#aQ"/><use transform="matrix(0.06172839506172839,0,0,0.06172839506172839,28.333333333333332,0)" xlink:href="#bn"/></g><g id="M"><use transform="matrix(0.06172839506172839,0,0,0.06172839506172839,0,0)" xlink:href="#aW"/><use transform="matrix(0.06172839506172839,0,0,0.06172839506172839,6.172839506172839,0)" xlink:href="#aU"/></g><path fill="#333" d="M84 4C-5 8 30-112 23-190h32v120c0 31 7 50 39 49 72-2 45-101 50-169h31l1 190h-30c-1-10 1-25-2-33-11 22-28 36-60 37" id="bZ"/><g id="N"><use transform="matrix(0.06172839506172839,0,0,0.06172839506172839,0,0)" xlink:href="#aM"/><use transform="matrix(0.06172839506172839,0,0,0.06172839506172839,18.456790123456788,0)" xlink:href="#aQ"/><use transform="matrix(0.06172839506172839,0,0,0.06172839506172839,30.80246913580247,0)" xlink:href="#aO"/><use transform="matrix(0.06172839506172839,0,0,0.06172839506172839,43.148148148148145,0)" xlink:href="#bZ"/><use transform="matrix(0.06172839506172839,0,0,0.06172839506172839,55.49382716049382,0)" xlink:href="#aQ"/><use transform="matrix(0.06172839506172839,0,0,0.06172839506172839,67.8395061728395,0)" xlink:href="#aR"/><use transform="matrix(0.06172839506172839,0,0,0.06172839506172839,72.71604938271605,0)" xlink:href="#aR"/><use transform="matrix(0.06172839506172839,0,0,0.06172839506172839,77.5925925925926,0)" xlink:href="#bn"/></g><path fill="#333" d="M108 0H70L1-190h34L89-25l56-165h34" id="ca"/><g id="O"><use transform="matrix(0.06172839506172839,0,0,0.06172839506172839,0,0)" xlink:href="#bX"/><use transform="matrix(0.06172839506172839,0,0,0.06172839506172839,7.345679012345679,0)" xlink:href="#aS"/><use transform="matrix(0.06172839506172839,0,0,0.06172839506172839,19.691358024691358,0)" xlink:href="#aM"/><use transform="matrix(0.06172839506172839,0,0,0.06172839506172839,38.148148148148145,0)" xlink:href="#aU"/><use transform="matrix(0.06172839506172839,0,0,0.06172839506172839,50.49382716049382,0)" xlink:href="#ca"/><use transform="matrix(0.06172839506172839,0,0,0.06172839506172839,61.60493827160494,0)" xlink:href="#aS"/></g><use transform="matrix(0.06172839506172839,0,0,0.06172839506172839,0,0)" xlink:href="#aQ" id="P"/><g id="Q"><use transform="matrix(0.06172839506172839,0,0,0.06172839506172839,0,0)" xlink:href="#aR"/><use transform="matrix(0.06172839506172839,0,0,0.06172839506172839,4.876543209876543,0)" xlink:href="#aS"/><use transform="matrix(0.06172839506172839,0,0,0.06172839506172839,17.22222222222222,0)" xlink:href="#aQ"/><use transform="matrix(0.06172839506172839,0,0,0.06172839506172839,29.5679012345679,0)" xlink:href="#aL"/></g><g id="R"><use transform="matrix(0.06172839506172839,0,0,0.06172839506172839,0,0)" xlink:href="#bm"/><use transform="matrix(0.06172839506172839,0,0,0.06172839506172839,12.345679012345679,0)" xlink:href="#bn"/></g><g id="S"><use transform="matrix(0.06172839506172839,0,0,0.06172839506172839,0,0)" xlink:href="#aP"/><use transform="matrix(0.06172839506172839,0,0,0.06172839506172839,14.814814814814813,0)" xlink:href="#aQ"/><use transform="matrix(0.06172839506172839,0,0,0.06172839506172839,27.160493827160494,0)" xlink:href="#aR"/><use transform="matrix(0.06172839506172839,0,0,0.06172839506172839,32.03703703703704,0)" xlink:href="#aS"/><use transform="matrix(0.06172839506172839,0,0,0.06172839506172839,44.382716049382715,0)" xlink:href="#aT"/></g><g id="T"><use transform="matrix(0.06172839506172839,0,0,0.06172839506172839,0,0)" xlink:href="#aK"/><use transform="matrix(0.06172839506172839,0,0,0.06172839506172839,14.814814814814813,0)" xlink:href="#aT"/><use transform="matrix(0.06172839506172839,0,0,0.06172839506172839,25.925925925925924,0)" xlink:href="#aT"/><use transform="matrix(0.06172839506172839,0,0,0.06172839506172839,37.03703703703704,0)" xlink:href="#aU"/><use transform="matrix(0.06172839506172839,0,0,0.06172839506172839,49.382716049382715,0)" xlink:href="#aV"/><use transform="matrix(0.06172839506172839,0,0,0.06172839506172839,60.49382716049382,0)" xlink:href="#aN"/><use transform="matrix(0.06172839506172839,0,0,0.06172839506172839,65.37037037037037,0)" xlink:href="#aQ"/><use transform="matrix(0.06172839506172839,0,0,0.06172839506172839,77.71604938271605,0)" xlink:href="#aW"/><use transform="matrix(0.06172839506172839,0,0,0.06172839506172839,83.88888888888889,0)" xlink:href="#aS"/></g><path fill="#333" d="M16-82v-28h88v28H16" id="cb"/><use transform="matrix(0.06172839506172839,0,0,0.06172839506172839,0,0)" xlink:href="#cb" id="U"/><path fill="#333" d="M33 0v-248h34V0H33" id="cc"/><use transform="matrix(0.06172839506172839,0,0,0.06172839506172839,0,0)" xlink:href="#cc" id="V"/><g id="W"><use transform="matrix(0.06172839506172839,0,0,0.06172839506172839,0,0)" xlink:href="#bY"/><use transform="matrix(0.06172839506172839,0,0,0.06172839506172839,15.987654320987653,0)" xlink:href="#aU"/><use transform="matrix(0.06172839506172839,0,0,0.06172839506172839,28.333333333333332,0)" xlink:href="#aO"/><use transform="matrix(0.06172839506172839,0,0,0.06172839506172839,40.67901234567901,0)" xlink:href="#aL"/><use transform="matrix(0.06172839506172839,0,0,0.06172839506172839,53.02469135802469,0)" xlink:href="#aS"/><use transform="matrix(0.06172839506172839,0,0,0.06172839506172839,65.37037037037037,0)" xlink:href="#bX"/></g><path fill="#333" d="M101-234c-31-9-42 10-38 44h38v23H63V0H32v-167H5v-23h27c-7-52 17-82 69-68v24" id="cd"/><g id="X"><use transform="matrix(0.06172839506172839,0,0,0.06172839506172839,0,0)" xlink:href="#aN"/><use transform="matrix(0.06172839506172839,0,0,0.06172839506172839,4.876543209876543,0)" xlink:href="#cd"/></g><g id="Y"><use transform="matrix(0.06172839506172839,0,0,0.06172839506172839,0,0)" xlink:href="#aW"/><use transform="matrix(0.06172839506172839,0,0,0.06172839506172839,6.172839506172839,0)" xlink:href="#bW"/><use transform="matrix(0.06172839506172839,0,0,0.06172839506172839,18.51851851851852,0)" xlink:href="#aS"/></g><g id="Z"><use transform="matrix(0.06172839506172839,0,0,0.06172839506172839,0,0)" xlink:href="#aK"/><use transform="matrix(0.06172839506172839,0,0,0.06172839506172839,14.814814814814813,0)" xlink:href="#aL"/><use transform="matrix(0.06172839506172839,0,0,0.06172839506172839,27.160493827160494,0)" xlink:href="#aM"/><use transform="matrix(0.06172839506172839,0,0,0.06172839506172839,45.61728395061728,0)" xlink:href="#aN"/><use transform="matrix(0.06172839506172839,0,0,0.06172839506172839,50.49382716049382,0)" xlink:href="#aO"/></g><g id="aa"><use transform="matrix(0.06172839506172839,0,0,0.06172839506172839,0,0)" xlink:href="#aV"/><use transform="matrix(0.06172839506172839,0,0,0.06172839506172839,11.11111111111111,0)" xlink:href="#aU"/><use transform="matrix(0.06172839506172839,0,0,0.06172839506172839,23.45679012345679,0)" xlink:href="#bZ"/><use transform="matrix(0.06172839506172839,0,0,0.06172839506172839,35.80246913580247,0)" xlink:href="#aR"/><use transform="matrix(0.06172839506172839,0,0,0.06172839506172839,40.67901234567901,0)" xlink:href="#aL"/></g><g id="ab"><use transform="matrix(0.06172839506172839,0,0,0.06172839506172839,0,0)" xlink:href="#aL"/><use transform="matrix(0.06172839506172839,0,0,0.06172839506172839,12.345679012345679,0)" xlink:href="#aU"/></g><g id="ac"><use transform="matrix(0.06172839506172839,0,0,0.06172839506172839,0,0)" xlink:href="#aN"/><use transform="matrix(0.06172839506172839,0,0,0.06172839506172839,4.876543209876543,0)" xlink:href="#aW"/></g><g id="ad"><use transform="matrix(0.06172839506172839,0,0,0.06172839506172839,0,0)" xlink:href="#bm"/><use transform="matrix(0.06172839506172839,0,0,0.06172839506172839,12.345679012345679,0)" xlink:href="#bZ"/><use transform="matrix(0.06172839506172839,0,0,0.06172839506172839,24.691358024691358,0)" xlink:href="#aW"/></g><path fill="#333" d="M47-170H22l-4-78h33" id="ce"/><g id="ae"><use transform="matrix(0.06172839506172839,0,0,0.06172839506172839,0,0)" xlink:href="#cc"/><use transform="matrix(0.06172839506172839,0,0,0.06172839506172839,6.172839506172839,0)" xlink:href="#ce"/><use transform="matrix(0.06172839506172839,0,0,0.06172839506172839,10.37037037037037,0)" xlink:href="#aM"/></g><g id="af"><use transform="matrix(0.06172839506172839,0,0,0.06172839506172839,0,0)" xlink:href="#aO"/><use transform="matrix(0.06172839506172839,0,0,0.06172839506172839,12.345679012345679,0)" xlink:href="#aU"/><use transform="matrix(0.06172839506172839,0,0,0.06172839506172839,24.691358024691358,0)" xlink:href="#aW"/></g><path fill="#333" d="M68-38c1 34 0 65-14 84H32c9-13 17-26 17-46H33v-38h35" id="cf"/><g id="ag"><use transform="matrix(0.06172839506172839,0,0,0.06172839506172839,0,0)" xlink:href="#aT"/><use transform="matrix(0.06172839506172839,0,0,0.06172839506172839,11.11111111111111,0)" xlink:href="#bZ"/><use transform="matrix(0.06172839506172839,0,0,0.06172839506172839,23.45679012345679,0)" xlink:href="#bX"/><use transform="matrix(0.06172839506172839,0,0,0.06172839506172839,30.80246913580247,0)" xlink:href="#aS"/><use transform="matrix(0.06172839506172839,0,0,0.06172839506172839,43.148148148148145,0)" xlink:href="#cf"/></g><g id="ah"><use transform="matrix(0.06172839506172839,0,0,0.06172839506172839,0,0)" xlink:href="#aN"/><use transform="matrix(0.06172839506172839,0,0,0.06172839506172839,4.876543209876543,0)" xlink:href="#aW"/></g><path fill="#333" d="M115-194c55 1 70 41 70 98S169 2 115 4C84 4 66-9 55-30l1 105H24l-1-265h31l2 30c10-21 28-34 59-34zm-8 174c40 0 45-34 45-75s-6-73-45-74c-42 0-51 32-51 76 0 43 10 73 51 73" id="cg"/><g id="ai"><use transform="matrix(0.06172839506172839,0,0,0.06172839506172839,0,0)" xlink:href="#cg"/><use transform="matrix(0.06172839506172839,0,0,0.06172839506172839,12.345679012345679,0)" xlink:href="#aU"/><use transform="matrix(0.06172839506172839,0,0,0.06172839506172839,24.691358024691358,0)" xlink:href="#aT"/><use transform="matrix(0.06172839506172839,0,0,0.06172839506172839,35.80246913580247,0)" xlink:href="#aT"/><use transform="matrix(0.06172839506172839,0,0,0.06172839506172839,46.91358024691358,0)" xlink:href="#aN"/><use transform="matrix(0.06172839506172839,0,0,0.06172839506172839,51.79012345679013,0)" xlink:href="#bm"/><use transform="matrix(0.06172839506172839,0,0,0.06172839506172839,64.13580246913581,0)" xlink:href="#aR"/><use transform="matrix(0.06172839506172839,0,0,0.06172839506172839,69.01234567901236,0)" xlink:href="#aS"/></g><g id="aj"><use transform="matrix(0.06172839506172839,0,0,0.06172839506172839,0,0)" xlink:href="#aV"/><use transform="matrix(0.06172839506172839,0,0,0.06172839506172839,11.11111111111111,0)" xlink:href="#bX"/><use transform="matrix(0.06172839506172839,0,0,0.06172839506172839,18.45679012345679,0)" xlink:href="#aS"/><use transform="matrix(0.06172839506172839,0,0,0.06172839506172839,30.80246913580247,0)" xlink:href="#aQ"/><use transform="matrix(0.06172839506172839,0,0,0.06172839506172839,43.148148148148145,0)" xlink:href="#aW"/><use transform="matrix(0.06172839506172839,0,0,0.06172839506172839,49.32098765432099,0)" xlink:href="#aS"/></g><g id="ak"><use transform="matrix(0.06172839506172839,0,0,0.06172839506172839,0,0)" xlink:href="#aQ"/><use transform="matrix(0.06172839506172839,0,0,0.06172839506172839,12.345679012345679,0)" xlink:href="#aO"/></g><g id="al"><use transform="matrix(0.06172839506172839,0,0,0.06172839506172839,0,0)" xlink:href="#aK"/><use transform="matrix(0.06172839506172839,0,0,0.06172839506172839,14.814814814814813,0)" xlink:href="#aV"/><use transform="matrix(0.06172839506172839,0,0,0.06172839506172839,25.925925925925924,0)" xlink:href="#aV"/><use transform="matrix(0.06172839506172839,0,0,0.06172839506172839,37.03703703703704,0)" xlink:href="#aU"/><use transform="matrix(0.06172839506172839,0,0,0.06172839506172839,49.382716049382715,0)" xlink:href="#bZ"/><use transform="matrix(0.06172839506172839,0,0,0.06172839506172839,61.72839506172839,0)" xlink:href="#aO"/><use transform="matrix(0.06172839506172839,0,0,0.06172839506172839,74.07407407407408,0)" xlink:href="#aW"/></g><g id="am"><use transform="matrix(0.06172839506172839,0,0,0.06172839506172839,0,0)" xlink:href="#bm"/><use transform="matrix(0.06172839506172839,0,0,0.06172839506172839,12.345679012345679,0)" xlink:href="#bn"/></g><g id="an"><use transform="matrix(0.06172839506172839,0,0,0.06172839506172839,0,0)" xlink:href="#aP"/><use transform="matrix(0.06172839506172839,0,0,0.06172839506172839,14.814814814814813,0)" xlink:href="#aS"/><use transform="matrix(0.06172839506172839,0,0,0.06172839506172839,27.160493827160494,0)" xlink:href="#aR"/><use transform="matrix(0.06172839506172839,0,0,0.06172839506172839,32.03703703703704,0)" xlink:href="#aR"/><use transform="matrix(0.06172839506172839,0,0,0.06172839506172839,36.91358024691358,0)" xlink:href="#aS"/><use transform="matrix(0.06172839506172839,0,0,0.06172839506172839,49.25925925925926,0)" xlink:href="#bX"/></g><g id="ao"><use transform="matrix(0.06172839506172839,0,0,0.06172839506172839,0,0)" xlink:href="#bW"/><use transform="matrix(0.06172839506172839,0,0,0.06172839506172839,12.345679012345679,0)" xlink:href="#aS"/></g><g id="ap"><use transform="matrix(0.06172839506172839,0,0,0.06172839506172839,0,0)" xlink:href="#aV"/><use transform="matrix(0.06172839506172839,0,0,0.06172839506172839,11.11111111111111,0)" xlink:href="#aQ"/><use transform="matrix(0.06172839506172839,0,0,0.06172839506172839,23.45679012345679,0)" xlink:href="#aO"/></g><g id="aq"><use transform="matrix(0.06172839506172839,0,0,0.06172839506172839,0,0)" xlink:href="#aU"/><use transform="matrix(0.06172839506172839,0,0,0.06172839506172839,12.345679012345679,0)" xlink:href="#aO"/><use transform="matrix(0.06172839506172839,0,0,0.06172839506172839,24.691358024691358,0)" xlink:href="#aR"/><use transform="matrix(0.06172839506172839,0,0,0.06172839506172839,29.5679012345679,0)" xlink:href="#bn"/></g><path fill="#333" d="M177-190C167-65 218 103 67 71c-23-6-38-20-44-43l32-5c15 47 100 32 89-28v-30C133-14 115 1 83 1 29 1 15-40 15-95c0-56 16-97 71-98 29-1 48 16 59 35 1-10 0-23 2-32h30zM94-22c36 0 50-32 50-73 0-42-14-75-50-75-39 0-46 34-46 75s6 73 46 73" id="ch"/><g id="ar"><use transform="matrix(0.06172839506172839,0,0,0.06172839506172839,0,0)" xlink:href="#aV"/><use transform="matrix(0.06172839506172839,0,0,0.06172839506172839,11.11111111111111,0)" xlink:href="#bW"/><use transform="matrix(0.06172839506172839,0,0,0.06172839506172839,23.45679012345679,0)" xlink:href="#aQ"/><use transform="matrix(0.06172839506172839,0,0,0.06172839506172839,35.80246913580247,0)" xlink:href="#aO"/><use transform="matrix(0.06172839506172839,0,0,0.06172839506172839,48.148148148148145,0)" xlink:href="#ch"/><use transform="matrix(0.06172839506172839,0,0,0.06172839506172839,60.49382716049382,0)" xlink:href="#aS"/></g><g id="as"><use transform="matrix(0.06172839506172839,0,0,0.06172839506172839,0,0)" xlink:href="#aQ"/><use transform="matrix(0.06172839506172839,0,0,0.06172839506172839,12.345679012345679,0)" xlink:href="#aV"/><use transform="matrix(0.06172839506172839,0,0,0.06172839506172839,23.45679012345679,0)" xlink:href="#aV"/><use transform="matrix(0.06172839506172839,0,0,0.06172839506172839,34.5679012345679,0)" xlink:href="#aU"/><use transform="matrix(0.06172839506172839,0,0,0.06172839506172839,46.913580246913575,0)" xlink:href="#bZ"/><use transform="matrix(0.06172839506172839,0,0,0.06172839506172839,59.25925925925925,0)" xlink:href="#aO"/><use transform="matrix(0.06172839506172839,0,0,0.06172839506172839,71.60493827160494,0)" xlink:href="#aW"/></g><g id="at"><use transform="matrix(0.06172839506172839,0,0,0.06172839506172839,0,0)" xlink:href="#aL"/><use transform="matrix(0.06172839506172839,0,0,0.06172839506172839,12.345679012345679,0)" xlink:href="#aS"/><use transform="matrix(0.06172839506172839,0,0,0.06172839506172839,24.691358024691358,0)" xlink:href="#aW"/><use transform="matrix(0.06172839506172839,0,0,0.06172839506172839,30.864197530864196,0)" xlink:href="#aQ"/><use transform="matrix(0.06172839506172839,0,0,0.06172839506172839,43.20987654320987,0)" xlink:href="#aN"/><use transform="matrix(0.06172839506172839,0,0,0.06172839506172839,48.08641975308642,0)" xlink:href="#aR"/><use transform="matrix(0.06172839506172839,0,0,0.06172839506172839,52.96296296296296,0)" xlink:href="#aT"/><use transform="matrix(0.06172839506172839,0,0,0.06172839506172839,64.07407407407408,0)" xlink:href="#cf"/></g><g id="au"><use transform="matrix(0.06172839506172839,0,0,0.06172839506172839,0,0)" xlink:href="#aW"/><use transform="matrix(0.06172839506172839,0,0,0.06172839506172839,6.172839506172839,0)" xlink:href="#bW"/><use transform="matrix(0.06172839506172839,0,0,0.06172839506172839,18.51851851851852,0)" xlink:href="#aS"/></g><g id="av"><use transform="matrix(0.06172839506172839,0,0,0.06172839506172839,0,0)" xlink:href="#aV"/><use transform="matrix(0.06172839506172839,0,0,0.06172839506172839,11.11111111111111,0)" xlink:href="#aU"/><use transform="matrix(0.06172839506172839,0,0,0.06172839506172839,23.45679012345679,0)" xlink:href="#aO"/><use transform="matrix(0.06172839506172839,0,0,0.06172839506172839,35.80246913580247,0)" xlink:href="#aW"/><use transform="matrix(0.06172839506172839,0,0,0.06172839506172839,41.97530864197531,0)" xlink:href="#aQ"/><use transform="matrix(0.06172839506172839,0,0,0.06172839506172839,54.32098765432099,0)" xlink:href="#aV"/><use transform="matrix(0.06172839506172839,0,0,0.06172839506172839,65.4320987654321,0)" xlink:href="#aW"/></g><g id="aw"><use transform="matrix(0.06172839506172839,0,0,0.06172839506172839,0,0)" xlink:href="#aV"/><use transform="matrix(0.06172839506172839,0,0,0.06172839506172839,11.11111111111111,0)" xlink:href="#bX"/><use transform="matrix(0.06172839506172839,0,0,0.06172839506172839,18.45679012345679,0)" xlink:href="#aS"/><use transform="matrix(0.06172839506172839,0,0,0.06172839506172839,30.80246913580247,0)" xlink:href="#aQ"/><use transform="matrix(0.06172839506172839,0,0,0.06172839506172839,43.148148148148145,0)" xlink:href="#aW"/><use transform="matrix(0.06172839506172839,0,0,0.06172839506172839,49.32098765432099,0)" xlink:href="#aS"/><use transform="matrix(0.06172839506172839,0,0,0.06172839506172839,61.666666666666664,0)" xlink:href="#aL"/></g><g id="ax"><use transform="matrix(0.06172839506172839,0,0,0.06172839506172839,0,0)" xlink:href="#aQ"/><use transform="matrix(0.06172839506172839,0,0,0.06172839506172839,12.345679012345679,0)" xlink:href="#bZ"/><use transform="matrix(0.06172839506172839,0,0,0.06172839506172839,24.691358024691358,0)" xlink:href="#aW"/><use transform="matrix(0.06172839506172839,0,0,0.06172839506172839,30.864197530864196,0)" xlink:href="#aU"/><use transform="matrix(0.06172839506172839,0,0,0.06172839506172839,43.20987654320987,0)" xlink:href="#aM"/><use transform="matrix(0.06172839506172839,0,0,0.06172839506172839,61.66666666666666,0)" xlink:href="#aQ"/><use transform="matrix(0.06172839506172839,0,0,0.06172839506172839,74.01234567901234,0)" xlink:href="#aW"/><use transform="matrix(0.06172839506172839,0,0,0.06172839506172839,80.18518518518518,0)" xlink:href="#aN"/><use transform="matrix(0.06172839506172839,0,0,0.06172839506172839,85.06172839506172,0)" xlink:href="#aV"/><use transform="matrix(0.06172839506172839,0,0,0.06172839506172839,96.17283950617283,0)" xlink:href="#aQ"/><use transform="matrix(0.06172839506172839,0,0,0.06172839506172839,108.51851851851852,0)" xlink:href="#aR"/><use transform="matrix(0.06172839506172839,0,0,0.06172839506172839,113.39506172839506,0)" xlink:href="#aR"/><use transform="matrix(0.06172839506172839,0,0,0.06172839506172839,118.27160493827161,0)" xlink:href="#bn"/></g><g id="ay"><use transform="matrix(0.06172839506172839,0,0,0.06172839506172839,0,0)" xlink:href="#aW"/><use transform="matrix(0.06172839506172839,0,0,0.06172839506172839,6.172839506172839,0)" xlink:href="#bW"/><use transform="matrix(0.06172839506172839,0,0,0.06172839506172839,18.51851851851852,0)" xlink:href="#aS"/></g><g id="az"><use transform="matrix(0.06172839506172839,0,0,0.06172839506172839,0,0)" xlink:href="#aH"/><use transform="matrix(0.06172839506172839,0,0,0.06172839506172839,15.987654320987653,0)" xlink:href="#aI"/><use transform="matrix(0.06172839506172839,0,0,0.06172839506172839,31.975308641975307,0)" xlink:href="#aJ"/></g><g id="aA"><use transform="matrix(0.06172839506172839,0,0,0.06172839506172839,0,0)" xlink:href="#aT"/><use transform="matrix(0.06172839506172839,0,0,0.06172839506172839,11.11111111111111,0)" xlink:href="#bn"/><use transform="matrix(0.06172839506172839,0,0,0.06172839506172839,22.22222222222222,0)" xlink:href="#aT"/><use transform="matrix(0.06172839506172839,0,0,0.06172839506172839,33.33333333333333,0)" xlink:href="#aW"/><use transform="matrix(0.06172839506172839,0,0,0.06172839506172839,39.50617283950617,0)" xlink:href="#aS"/><use transform="matrix(0.06172839506172839,0,0,0.06172839506172839,51.85185185185185,0)" xlink:href="#aM"/></g><g id="aB"><use transform="matrix(0.06172839506172839,0,0,0.06172839506172839,0,0)" xlink:href="#aQ"/><use transform="matrix(0.06172839506172839,0,0,0.06172839506172839,12.345679012345679,0)" xlink:href="#aO"/><use transform="matrix(0.06172839506172839,0,0,0.06172839506172839,24.691358024691358,0)" xlink:href="#aL"/></g><g id="aC"><use transform="matrix(0.06172839506172839,0,0,0.06172839506172839,0,0)" xlink:href="#aQ"/><use transform="matrix(0.06172839506172839,0,0,0.06172839506172839,12.345679012345679,0)" xlink:href="#aR"/><use transform="matrix(0.06172839506172839,0,0,0.06172839506172839,17.22222222222222,0)" xlink:href="#aR"/></g><g id="aD"><use transform="matrix(0.06172839506172839,0,0,0.06172839506172839,0,0)" xlink:href="#aL"/><use transform="matrix(0.06172839506172839,0,0,0.06172839506172839,12.345679012345679,0)" xlink:href="#aQ"/><use transform="matrix(0.06172839506172839,0,0,0.06172839506172839,24.691358024691358,0)" xlink:href="#aW"/><use transform="matrix(0.06172839506172839,0,0,0.06172839506172839,30.864197530864196,0)" xlink:href="#aQ"/></g><g id="aE"><use transform="matrix(0.06172839506172839,0,0,0.06172839506172839,0,0)" xlink:href="#aV"/><use transform="matrix(0.06172839506172839,0,0,0.06172839506172839,11.11111111111111,0)" xlink:href="#aU"/><use transform="matrix(0.06172839506172839,0,0,0.06172839506172839,23.45679012345679,0)" xlink:href="#aR"/><use transform="matrix(0.06172839506172839,0,0,0.06172839506172839,28.333333333333336,0)" xlink:href="#aR"/><use transform="matrix(0.06172839506172839,0,0,0.06172839506172839,33.20987654320988,0)" xlink:href="#aS"/><use transform="matrix(0.06172839506172839,0,0,0.06172839506172839,45.55555555555556,0)" xlink:href="#aV"/><use transform="matrix(0.06172839506172839,0,0,0.06172839506172839,56.66666666666667,0)" xlink:href="#aW"/><use transform="matrix(0.06172839506172839,0,0,0.06172839506172839,62.83950617283951,0)" xlink:href="#aS"/><use transform="matrix(0.06172839506172839,0,0,0.06172839506172839,75.18518518518519,0)" xlink:href="#aL"/></g><g id="aF"><use transform="matrix(0.06172839506172839,0,0,0.06172839506172839,0,0)" xlink:href="#cd"/><use transform="matrix(0.06172839506172839,0,0,0.06172839506172839,6.172839506172839,0)" xlink:href="#bX"/><use transform="matrix(0.06172839506172839,0,0,0.06172839506172839,13.518518518518519,0)" xlink:href="#aU"/><use transform="matrix(0.06172839506172839,0,0,0.06172839506172839,25.864197530864196,0)" xlink:href="#aM"/></g><g id="aG"><use transform="matrix(0.06172839506172839,0,0,0.06172839506172839,0,0)" xlink:href="#aR"/><use transform="matrix(0.06172839506172839,0,0,0.06172839506172839,4.876543209876543,0)" xlink:href="#aS"/><use transform="matrix(0.06172839506172839,0,0,0.06172839506172839,17.22222222222222,0)" xlink:href="#aQ"/><use transform="matrix(0.06172839506172839,0,0,0.06172839506172839,29.5679012345679,0)" xlink:href="#aL"/></g></defs></g></svg>