<svg xmlns="http://www.w3.org/2000/svg" xmlns:xlink="http://www.w3.org/1999/xlink" xmlns:lucid="lucid" width="1560.72" height="1240"><g transform="translate(-200 -40)" lucid:page-tab-id="0_0"><path d="M0 0h1870.87v1322.83H0z" fill="#fff"/><path d="M540 66c0-3.3 2.7-6 6-6h888c3.3 0 6 2.7 6 6v1188c0 3.3-2.7 6-6 6H546c-3.3 0-6-2.7-6-6z" stroke="#5e5e5e" stroke-width="3" fill-opacity="0"/><use xlink:href="#a" transform="matrix(1,0,0,1,548,68) translate(416.78395061728395 17.77777777777778)"/><path d="M279.75 539.75c0 10.9-8.84 19.75-19.75 19.75-10.9 0-19.75-8.84-19.75-19.75 0-10.9 8.84-19.75 19.75-19.75 10.9 0 19.75 8.84 19.75 19.75z" stroke="#5e5e5e" stroke-width="3" fill="#fff"/><path d="M260 559.5v49.3c0 3.3 1.44 8.27 3.2 11.07L300 678m-40-63.2L220 678m0-98.75h80" stroke="#5e5e5e" stroke-width="3" fill="none"/><path d="M220 526c0-3.3 2.7-6 6-6h68c3.3 0 6 2.7 6 6v168c0 3.3-2.7 6-6 6h-68c-3.3 0-6-2.7-6-6z" fill="none"/><use xlink:href="#b" transform="matrix(1,0,0,1,140,678) translate(88.58024691358025 17.77777777777778)"/><path d="M1679.75 544.75c0 10.9-8.84 19.75-19.75 19.75-10.9 0-19.75-8.84-19.75-19.75 0-10.9 8.84-19.75 19.75-19.75 10.9 0 19.75 8.84 19.75 19.75z" stroke="#5e5e5e" stroke-width="3" fill="#fff"/><path d="M1660 564.5v49.3c0 3.3 1.44 8.27 3.2 11.07L1700 683m-40-63.2l-40 63.2m0-98.75h80" stroke="#5e5e5e" stroke-width="3" fill="none"/><path d="M1620 531c0-3.3 2.7-6 6-6h68c3.3 0 6 2.7 6 6v168c0 3.3-2.7 6-6 6h-68c-3.3 0-6-2.7-6-6z" fill="none"/><use xlink:href="#c" transform="matrix(1,0,0,1,1540,683) translate(41.04938271604938 17.77777777777778)"/><use xlink:href="#d" transform="matrix(1,0,0,1,1540,683) translate(102.71604938271605 17.77777777777778)"/><path d="M1260 165c0 24.85-44.77 45-100 45s-100-20.15-100-45 44.77-45 100-45 100 20.15 100 45z" stroke="#5e5e5e" stroke-width="3" fill="#fff"/><use xlink:href="#e" transform="matrix(1,0,0,1,1060,120) translate(31.579999999999995 48.15)"/><use xlink:href="#f" transform="matrix(1,0,0,1,1060,120) translate(90.48 48.15)"/><use xlink:href="#g" transform="matrix(1,0,0,1,1060,120) translate(128.43 48.15)"/><path d="M1660.1 621.2l-1.5 1.3-397.2-456.1 1.5-1.3z" fill="#5e5e5e"/><path d="M1662.72 624.2l-1.5 1.32-2.65-3.03 1.5-1.33zM1262.93 165.12l-1.48 1.28.02-.3.03-1.1v-.47l-.06-1.1z" fill="#5e5e5e"/><path d="M1260 465c0 24.85-44.77 45-100 45s-100-20.15-100-45 44.77-45 100-45 100 20.15 100 45z" stroke="#5e5e5e" stroke-width="3" fill="#fff"/><use xlink:href="#h" transform="matrix(1,0,0,1,1060,420) translate(46.055 36.9)"/><use xlink:href="#i" transform="matrix(1,0,0,1,1060,420) translate(113.955 36.9)"/><use xlink:href="#j" transform="matrix(1,0,0,1,1060,420) translate(37.07999999999999 58.5)"/><use xlink:href="#k" transform="matrix(1,0,0,1,1060,420) translate(71.03 58.5)"/><path d="M1655.65 621.68l-.74 1.86-392.84-157.24.74-1.86z" fill="#5e5e5e"/><path d="M1659.37 623.17l-.75 1.86-3.73-1.5.73-1.86zM1262.82 464.45l-.74 1.86-.6-.23.02-1.06v-.47l-.03-.62z" fill="#5e5e5e"/><path d="M1100 665c0 24.85-44.77 45-100 45s-100-20.15-100-45 44.77-45 100-45 100 20.15 100 45z" stroke="#5e5e5e" stroke-width="3" fill="#fff"/><use xlink:href="#e" transform="matrix(1,0,0,1,900,620) translate(39.58 48.15)"/><use xlink:href="#l" transform="matrix(1,0,0,1,900,620) translate(98.48 48.15)"/><path d="M1380 660c0 24.85-44.77 45-100 45s-100-20.15-100-45 44.77-45 100-45 100 20.15 100 45z" stroke="#5e5e5e" stroke-width="3" fill="#fff"/><use xlink:href="#e" transform="matrix(1,0,0,1,1180,615) translate(38.05499999999999 48.15)"/><use xlink:href="#m" transform="matrix(1,0,0,1,1180,615) translate(96.955 48.15)"/><path d="M840 475c0 24.85-44.77 45-100 45s-100-20.15-100-45 44.77-45 100-45 100 20.15 100 45z" stroke="#5e5e5e" stroke-width="3" fill="#fff"/><use xlink:href="#n" transform="matrix(1,0,0,1,640,430) translate(44.05499999999999 48.15)"/><use xlink:href="#o" transform="matrix(1,0,0,1,640,430) translate(115.955 48.15)"/><path d="M851.3 466H841v-2h10.3zm30.94 0h-20.62v-2h20.62zm14.82 0h-4.5v-2h4.5zm139.82 0h-20.62v-2h20.62zm20.62 0h-10.3v-2h10.3zm-51.55 0h-5.33v-2h5.33z" fill="#5e5e5e"/><path d="M858.87 455.68L843.1 465l15.77 9.32-1.02 1.72L839.18 465l18.67-11.04zM1058.5 465v.47l.03.53h-1.06v-2h1.05z" fill="#5e5e5e"/><use xlink:href="#p" transform="matrix(1,0,0,1,897.0632765630596,454.3333333333333) translate(0 14.222222222222223)"/><path d="M1260 285c0 24.85-44.77 45-100 45s-100-20.15-100-45 44.77-45 100-45 100 20.15 100 45z" stroke="#5e5e5e" stroke-width="3" fill="#fff"/><use xlink:href="#q" transform="matrix(1,0,0,1,1060,240) translate(36.555 39.7125)"/><use xlink:href="#r" transform="matrix(1,0,0,1,1060,240) translate(73.55499999999999 39.7125)"/><use xlink:href="#s" transform="matrix(1,0,0,1,1060,240) translate(74.055 61.3125)"/><path d="M1161 417.5h-2v-9.35h2zm0-18.7h-2v-13.13h2zm0-34.47h-2v-12.3h2zm0-21.66h-2v-9.35h2z" fill="#5e5e5e"/><path d="M1161 418.52l-1-.02h-1v-1.03h2zM1171.04 350.17l-1.72 1.02-9.32-15.77-9.32 15.76-1.72-1.03L1160 331.5z" fill="#5e5e5e"/><use xlink:href="#p" transform="matrix(1,0,0,1,1108.2222222222222,364.3333333333333) translate(0 14.222222222222223)"/><path d="M1656.1 621.57l-1.3 1.52-393.2-336.7 1.3-1.5z" fill="#5e5e5e"/><path d="M1659.14 624.18l-1.3 1.5-3.06-2.6 1.3-1.52zM1262.93 284.9l-1.3 1.53-.17-.15v-.17l.04-1.1v-.47l-.05-.9z" fill="#5e5e5e"/><path d="M1380 832.5c0 24.85-44.77 45-100 45s-100-20.15-100-45 44.77-45 100-45 100 20.15 100 45z" stroke="#5e5e5e" stroke-width="3" fill="#fff"/><use xlink:href="#t" transform="matrix(1,0,0,1,1180,787.5) translate(50.005 36.9)"/><use xlink:href="#u" transform="matrix(1,0,0,1,1180,787.5) translate(87.005 36.9)"/><use xlink:href="#v" transform="matrix(1,0,0,1,1180,787.5) translate(74.555 58.5)"/><path d="M1281 784.18h-2v-8.52h2zm0-17.04h-2v-10.22h2zm0-31.56h-2v-11.04h2zm0-19.56h-2v-8.52h2z" fill="#5e5e5e"/><path d="M1280 706.5h1v1.03h-2v-1.05zM1291.04 767.33L1280 786l-11.04-18.67 1.72-1.02 9.32 15.77 9.32-15.76z" fill="#5e5e5e"/><use xlink:href="#p" transform="matrix(1,0,0,1,1228.2222222222222,735.5833333333334) translate(0 14.222222222222223)"/><path d="M1659.18 623.18l-281.16 195.2M1659.16 623.2l3.3-2.3" stroke="#5e5e5e" stroke-width="2" fill="none"/><path d="M1378.6 819.2l-.87.6-.4-.63-.7-1.04.84-.58z" fill="#5e5e5e"/><path d="M1380 945c0 24.85-44.77 45-100 45s-100-20.15-100-45 44.77-45 100-45 100 20.15 100 45z" stroke="#5e5e5e" stroke-width="3" fill="#fff"/><use xlink:href="#w" transform="matrix(1,0,0,1,1180,900) translate(23.079999999999995 48.15)"/><use xlink:href="#k" transform="matrix(1,0,0,1,1180,900) translate(84.03 48.15)"/><path d="M1659.35 623.36l-277.2 320.88M1659.33 623.38l2.63-3.05" stroke="#5e5e5e" stroke-width="2" fill="none"/><path d="M1382.93 944.88l-1.5 1.72.04-.5.03-1.1v-.47l-.05-.93z" fill="#5e5e5e"/><path d="M1380 1057.5c0 24.85-44.77 45-100 45s-100-20.15-100-45 44.77-45 100-45 100 20.15 100 45z" stroke="#5e5e5e" stroke-width="3" fill="#fff"/><use xlink:href="#x" transform="matrix(1,0,0,1,1180,1012.5) translate(28.105 48.15)"/><use xlink:href="#k" transform="matrix(1,0,0,1,1180,1012.5) translate(79.00500000000001 48.15)"/><path d="M1659.46 623.45l-277.42 433.2M1659.45 623.47l2.17-3.4" stroke="#5e5e5e" stroke-width="2" fill="none"/><path d="M1382.9 1057.18l-1.5 2.32.07-.9.03-1.1v-.47l-.04-.77z" fill="#5e5e5e"/><path d="M840 695c0 24.85-44.77 45-100 45s-100-20.15-100-45 44.77-45 100-45 100 20.15 100 45z" stroke="#5e5e5e" stroke-width="3" fill="#fff"/><use xlink:href="#y" transform="matrix(1,0,0,1,640,650) translate(48.555 36.9)"/><use xlink:href="#z" transform="matrix(1,0,0,1,640,650) translate(47.03000000000001 58.5)"/><use xlink:href="#A" transform="matrix(1,0,0,1,640,650) translate(67.03 58.5)"/><use xlink:href="#B" transform="matrix(1,0,0,1,640,650) translate(97.03 58.5)"/><path d="M262.47 599.05l375.06 95.7M262.5 599.05l-3.9-1" stroke="#5e5e5e" stroke-width="2" fill="none"/><path d="M638.53 693.97l-.03 1.02v.47l.03.57-1.27-.32.5-1.94z" fill="#5e5e5e"/><path d="M259.45 598.5l378.1-123.2M259.48 598.48l-3.83 1.25" stroke="#5e5e5e" stroke-width="2" fill="none"/><path d="M638.5 475v.47l.03.57-.7.23-.62-1.9 1.33-.43z" fill="#5e5e5e"/><path d="M1380 1170c0 24.85-44.77 45-100 45s-100-20.15-100-45 44.77-45 100-45 100 20.15 100 45z" stroke="#5e5e5e" stroke-width="3" fill="#fff"/><g><use xlink:href="#C" transform="matrix(1,0,0,1,1180,1125) translate(45.03 48.15)"/><use xlink:href="#D" transform="matrix(1,0,0,1,1180,1125) translate(105.98 48.15)"/></g><path d="M1655.76 623.88l-273.8 545.23M1655.75 623.9l1.8-3.6" stroke="#5e5e5e" stroke-width="2" fill="none"/><path d="M1382.85 1169.53l-1.5 3 .04-.32.07-1.1.03-1.1v-.47l-.04-.7zM1042.73 613.2l-5.9 7.35-1.55-1.25 5.9-7.36zm17.68-22.1l-11.78 14.72-1.56-1.25 11.8-14.73zm5.9-7.38l-1.56-1.25 5.45-6.8h2.55zm29.47-36.83l-5.96 7.43h-2.55l6.96-8.7zm17.68-22.1l-11.8 14.72-1.55-1.25 11.8-14.73zm11.8-14.74l-5.9 7.36-1.57-1.25 5.9-7.36z" fill="#5e5e5e"/><path d="M1126.2 508.85l-.98 1.23-1.56-1.25.3-.38zM1039.94 600.15l-2.56 18.13 17.12-6.48.7 1.87-20.28 7.68 3.04-21.48z" fill="#5e5e5e"/><g><use xlink:href="#E" transform="matrix(1,0,0,1,1028.2222222222222,554.3333333333334) translate(0 14.222222222222223)"/></g><path d="M1262.12 612.2l-1.4 1.42-6.73-6.7 1.4-1.43zm-13.43-13.42l-1.42 1.4-13.43-13.4 1.4-1.43zm-20.15-20.14l-1.4 1.4-6.55-6.52h2.83zm-26.45-26.46h-2.83l-5.7-5.7 1.4-1.4zm-13.83-13.83l-1.42 1.42-13.42-13.43 1.4-1.4zm-20.14-20.14l-1.42 1.43-6.7-6.72 1.4-1.4z" fill="#5e5e5e"/><path d="M1160 511.5h1.4l-1.38 1.43-1.47-1.47zM1262.7 614.2l-21-5.4.5-1.93 17.72 4.55-4.55-17.73 1.93-.5z" fill="#5e5e5e"/><g><use xlink:href="#E" transform="matrix(1,0,0,1,1159.571388007736,552.1825796116262) translate(0 14.222222222222223)"/></g><defs><path fill="#333" d="M212-179c-10-28-35-45-73-45-59 0-87 40-87 99 0 60 29 101 89 101 43 0 62-24 78-52l27 14C228-24 195 4 139 4 59 4 22-46 18-125c-6-104 99-153 187-111 19 9 31 26 39 46" id="F"/><path fill="#333" d="M233-177c-1 41-23 64-60 70L243 0h-38l-65-103H63V0H30v-248c88 3 205-21 203 71zM63-129c60-2 137 13 137-47 0-61-80-42-137-45v92" id="G"/><path fill="#333" d="M240 0l2-218c-23 76-54 145-80 218h-23L58-218 59 0H30v-248h44l77 211c21-75 51-140 76-211h43V0h-30" id="H"/><g id="a"><use transform="matrix(0.06172839506172839,0,0,0.06172839506172839,0,0)" xlink:href="#F"/><use transform="matrix(0.06172839506172839,0,0,0.06172839506172839,15.987654320987653,0)" xlink:href="#G"/><use transform="matrix(0.06172839506172839,0,0,0.06172839506172839,31.975308641975307,0)" xlink:href="#H"/></g><path fill="#333" d="M205 0l-28-72H64L36 0H1l101-248h38L239 0h-34zm-38-99l-47-123c-12 45-31 82-46 123h93" id="I"/><path fill="#333" d="M85-194c31 0 48 13 60 33l-1-100h32l1 261h-30c-2-10 0-23-3-31C134-8 116 4 85 4 32 4 16-35 15-94c0-66 23-100 70-100zm9 24c-40 0-46 34-46 75 0 40 6 74 45 74 42 0 51-32 51-76 0-42-9-74-50-73" id="J"/><path fill="#333" d="M210-169c-67 3-38 105-44 169h-31v-121c0-29-5-50-35-48C34-165 62-65 56 0H25l-1-190h30c1 10-1 24 2 32 10-44 99-50 107 0 11-21 27-35 58-36 85-2 47 119 55 194h-31v-121c0-29-5-49-35-48" id="K"/><path fill="#333" d="M24-231v-30h32v30H24zM24 0v-190h32V0H24" id="L"/><path fill="#333" d="M117-194c89-4 53 116 60 194h-32v-121c0-31-8-49-39-48C34-167 62-67 57 0H25l-1-190h30c1 10-1 24 2 32 11-22 29-35 61-36" id="M"/><g id="b"><use transform="matrix(0.06172839506172839,0,0,0.06172839506172839,0,0)" xlink:href="#I"/><use transform="matrix(0.06172839506172839,0,0,0.06172839506172839,14.814814814814813,0)" xlink:href="#J"/><use transform="matrix(0.06172839506172839,0,0,0.06172839506172839,27.160493827160494,0)" xlink:href="#K"/><use transform="matrix(0.06172839506172839,0,0,0.06172839506172839,45.61728395061728,0)" xlink:href="#L"/><use transform="matrix(0.06172839506172839,0,0,0.06172839506172839,50.49382716049382,0)" xlink:href="#M"/></g><path fill="#333" d="M185-189c-5-48-123-54-124 2 14 75 158 14 163 119 3 78-121 87-175 55-17-10-28-26-33-46l33-7c5 56 141 63 141-1 0-78-155-14-162-118-5-82 145-84 179-34 5 7 8 16 11 25" id="N"/><path fill="#333" d="M141-36C126-15 110 5 73 4 37 3 15-17 15-53c-1-64 63-63 125-63 3-35-9-54-41-54-24 1-41 7-42 31l-33-3c5-37 33-52 76-52 45 0 72 20 72 64v82c-1 20 7 32 28 27v20c-31 9-61-2-59-35zM48-53c0 20 12 33 32 33 41-3 63-29 60-74-43 2-92-5-92 41" id="O"/><path fill="#333" d="M24 0v-261h32V0H24" id="P"/><path fill="#333" d="M100-194c63 0 86 42 84 106H49c0 40 14 67 53 68 26 1 43-12 49-29l28 8c-11 28-37 45-77 45C44 4 14-33 15-96c1-61 26-98 85-98zm52 81c6-60-76-77-97-28-3 7-6 17-6 28h103" id="Q"/><path fill="#333" d="M135-143c-3-34-86-38-87 0 15 53 115 12 119 90S17 21 10-45l28-5c4 36 97 45 98 0-10-56-113-15-118-90-4-57 82-63 122-42 12 7 21 19 24 35" id="R"/><g id="c"><use transform="matrix(0.06172839506172839,0,0,0.06172839506172839,0,0)" xlink:href="#N"/><use transform="matrix(0.06172839506172839,0,0,0.06172839506172839,14.814814814814813,0)" xlink:href="#O"/><use transform="matrix(0.06172839506172839,0,0,0.06172839506172839,27.160493827160494,0)" xlink:href="#P"/><use transform="matrix(0.06172839506172839,0,0,0.06172839506172839,32.03703703703704,0)" xlink:href="#Q"/><use transform="matrix(0.06172839506172839,0,0,0.06172839506172839,44.382716049382715,0)" xlink:href="#R"/></g><path fill="#333" d="M100-194c62-1 85 37 85 99 1 63-27 99-86 99S16-35 15-95c0-66 28-99 85-99zM99-20c44 1 53-31 53-75 0-43-8-75-51-75s-53 32-53 75 10 74 51 75" id="S"/><path fill="#333" d="M96-169c-40 0-48 33-48 73s9 75 48 75c24 0 41-14 43-38l32 2c-6 37-31 61-74 61-59 0-76-41-82-99-10-93 101-131 147-64 4 7 5 14 7 22l-32 3c-4-21-16-35-41-35" id="T"/><path fill="#333" d="M59-47c-2 24 18 29 38 22v24C64 9 27 4 27-40v-127H5v-23h24l9-43h21v43h35v23H59v120" id="U"/><g id="d"><use transform="matrix(0.06172839506172839,0,0,0.06172839506172839,0,0)" xlink:href="#I"/><use transform="matrix(0.06172839506172839,0,0,0.06172839506172839,14.814814814814813,0)" xlink:href="#R"/><use transform="matrix(0.06172839506172839,0,0,0.06172839506172839,25.925925925925924,0)" xlink:href="#R"/><use transform="matrix(0.06172839506172839,0,0,0.06172839506172839,37.03703703703704,0)" xlink:href="#S"/><use transform="matrix(0.06172839506172839,0,0,0.06172839506172839,49.382716049382715,0)" xlink:href="#T"/><use transform="matrix(0.06172839506172839,0,0,0.06172839506172839,60.49382716049382,0)" xlink:href="#L"/><use transform="matrix(0.06172839506172839,0,0,0.06172839506172839,65.37037037037037,0)" xlink:href="#O"/><use transform="matrix(0.06172839506172839,0,0,0.06172839506172839,77.71604938271605,0)" xlink:href="#U"/><use transform="matrix(0.06172839506172839,0,0,0.06172839506172839,83.88888888888889,0)" xlink:href="#Q"/></g><path d="M212-179c-10-28-35-45-73-45-59 0-87 40-87 99 0 60 29 101 89 101 43 0 62-24 78-52l27 14C228-24 195 4 139 4 59 4 22-46 18-125c-6-104 99-153 187-111 19 9 31 26 39 46" id="V"/><path d="M114-163C36-179 61-72 57 0H25l-1-190h30c1 12-1 29 2 39 6-27 23-49 58-41v29" id="W"/><path d="M100-194c63 0 86 42 84 106H49c0 40 14 67 53 68 26 1 43-12 49-29l28 8c-11 28-37 45-77 45C44 4 14-33 15-96c1-61 26-98 85-98zm52 81c6-60-76-77-97-28-3 7-6 17-6 28h103" id="X"/><path d="M141-36C126-15 110 5 73 4 37 3 15-17 15-53c-1-64 63-63 125-63 3-35-9-54-41-54-24 1-41 7-42 31l-33-3c5-37 33-52 76-52 45 0 72 20 72 64v82c-1 20 7 32 28 27v20c-31 9-61-2-59-35zM48-53c0 20 12 33 32 33 41-3 63-29 60-74-43 2-92-5-92 41" id="Y"/><path d="M59-47c-2 24 18 29 38 22v24C64 9 27 4 27-40v-127H5v-23h24l9-43h21v43h35v23H59v120" id="Z"/><g id="e"><use transform="matrix(0.05,0,0,0.05,0,0)" xlink:href="#V"/><use transform="matrix(0.05,0,0,0.05,12.950000000000001,0)" xlink:href="#W"/><use transform="matrix(0.05,0,0,0.05,18.900000000000002,0)" xlink:href="#X"/><use transform="matrix(0.05,0,0,0.05,28.900000000000002,0)" xlink:href="#Y"/><use transform="matrix(0.05,0,0,0.05,38.900000000000006,0)" xlink:href="#Z"/><use transform="matrix(0.05,0,0,0.05,43.900000000000006,0)" xlink:href="#X"/></g><path d="M117-194c89-4 53 116 60 194h-32v-121c0-31-8-49-39-48C34-167 62-67 57 0H25l-1-190h30c1 10-1 24 2 32 11-22 29-35 61-36" id="aa"/><path d="M206 0h-36l-40-164L89 0H53L-1-190h32L70-26l43-164h34l41 164 42-164h31" id="ab"/><g id="f"><use transform="matrix(0.05,0,0,0.05,0,0)" xlink:href="#aa"/><use transform="matrix(0.05,0,0,0.05,10,0)" xlink:href="#X"/><use transform="matrix(0.05,0,0,0.05,20,0)" xlink:href="#ab"/></g><path d="M30 0v-248h33v221h125V0H30" id="ac"/><path d="M85-194c31 0 48 13 60 33l-1-100h32l1 261h-30c-2-10 0-23-3-31C134-8 116 4 85 4 32 4 16-35 15-94c0-66 23-100 70-100zm9 24c-40 0-46 34-46 75 0 40 6 74 45 74 42 0 51-32 51-76 0-42-9-74-50-73" id="ad"/><g id="g"><use transform="matrix(0.05,0,0,0.05,0,0)" xlink:href="#ac"/><use transform="matrix(0.05,0,0,0.05,10,0)" xlink:href="#X"/><use transform="matrix(0.05,0,0,0.05,20,0)" xlink:href="#Y"/><use transform="matrix(0.05,0,0,0.05,30,0)" xlink:href="#ad"/></g><path d="M100-194c62-1 85 37 85 99 1 63-27 99-86 99S16-35 15-95c0-66 28-99 85-99zM99-20c44 1 53-31 53-75 0-43-8-75-51-75s-53 32-53 75 10 74 51 75" id="ae"/><path d="M108 0H70L1-190h34L89-25l56-165h34" id="af"/><g id="h"><use transform="matrix(0.05,0,0,0.05,0,0)" xlink:href="#V"/><use transform="matrix(0.05,0,0,0.05,12.950000000000001,0)" xlink:href="#ae"/><use transform="matrix(0.05,0,0,0.05,22.950000000000003,0)" xlink:href="#aa"/><use transform="matrix(0.05,0,0,0.05,32.95,0)" xlink:href="#af"/><use transform="matrix(0.05,0,0,0.05,41.95,0)" xlink:href="#X"/><use transform="matrix(0.05,0,0,0.05,51.95,0)" xlink:href="#W"/><use transform="matrix(0.05,0,0,0.05,57.900000000000006,0)" xlink:href="#Z"/></g><g id="i"><use transform="matrix(0.05,0,0,0.05,0,0)" xlink:href="#ac"/><use transform="matrix(0.05,0,0,0.05,10,0)" xlink:href="#X"/><use transform="matrix(0.05,0,0,0.05,20,0)" xlink:href="#Y"/><use transform="matrix(0.05,0,0,0.05,30,0)" xlink:href="#ad"/></g><path d="M24-231v-30h32v30H24zM24 0v-190h32V0H24" id="ag"/><g id="j"><use transform="matrix(0.05,0,0,0.05,0,0)" xlink:href="#ag"/><use transform="matrix(0.05,0,0,0.05,3.95,0)" xlink:href="#aa"/><use transform="matrix(0.05,0,0,0.05,13.949999999999998,0)" xlink:href="#Z"/><use transform="matrix(0.05,0,0,0.05,18.95,0)" xlink:href="#ae"/></g><path d="M140-251c81 0 123 46 123 126C263-46 219 4 140 4 59 4 17-45 17-125s42-126 123-126zm0 227c63 0 89-41 89-101s-29-99-89-99c-61 0-89 39-89 99S79-25 140-24" id="ah"/><path d="M115-194c55 1 70 41 70 98S169 2 115 4C84 4 66-9 55-30l1 105H24l-1-265h31l2 30c10-21 28-34 59-34zm-8 174c40 0 45-34 45-75s-6-73-45-74c-42 0-51 32-51 76 0 43 10 73 51 73" id="ai"/><path d="M84 4C-5 8 30-112 23-190h32v120c0 31 7 50 39 49 72-2 45-101 50-169h31l1 190h-30c-1-10 1-25-2-33-11 22-28 36-60 37" id="aj"/><path d="M179-190L93 31C79 59 56 82 12 73V49c39 6 53-20 64-50L1-190h34L92-34l54-156h33" id="ak"/><g id="k"><use transform="matrix(0.05,0,0,0.05,0,0)" xlink:href="#ah"/><use transform="matrix(0.05,0,0,0.05,14,0)" xlink:href="#ai"/><use transform="matrix(0.05,0,0,0.05,24,0)" xlink:href="#ai"/><use transform="matrix(0.05,0,0,0.05,34,0)" xlink:href="#ae"/><use transform="matrix(0.05,0,0,0.05,44,0)" xlink:href="#W"/><use transform="matrix(0.05,0,0,0.05,49.95,0)" xlink:href="#Z"/><use transform="matrix(0.05,0,0,0.05,54.95,0)" xlink:href="#aj"/><use transform="matrix(0.05,0,0,0.05,64.95,0)" xlink:href="#aa"/><use transform="matrix(0.05,0,0,0.05,74.95,0)" xlink:href="#ag"/><use transform="matrix(0.05,0,0,0.05,78.9,0)" xlink:href="#Z"/><use transform="matrix(0.05,0,0,0.05,83.9,0)" xlink:href="#ak"/></g><path d="M96-169c-40 0-48 33-48 73s9 75 48 75c24 0 41-14 43-38l32 2c-6 37-31 61-74 61-59 0-76-41-82-99-10-93 101-131 147-64 4 7 5 14 7 22l-32 3c-4-21-16-35-41-35" id="al"/><g id="l"><use transform="matrix(0.05,0,0,0.05,0,0)" xlink:href="#V"/><use transform="matrix(0.05,0,0,0.05,12.950000000000001,0)" xlink:href="#ae"/><use transform="matrix(0.05,0,0,0.05,22.950000000000003,0)" xlink:href="#aa"/><use transform="matrix(0.05,0,0,0.05,32.95,0)" xlink:href="#Z"/><use transform="matrix(0.05,0,0,0.05,37.95,0)" xlink:href="#Y"/><use transform="matrix(0.05,0,0,0.05,47.95,0)" xlink:href="#al"/><use transform="matrix(0.05,0,0,0.05,56.95,0)" xlink:href="#Z"/></g><path d="M205 0l-28-72H64L36 0H1l101-248h38L239 0h-34zm-38-99l-47-123c-12 45-31 82-46 123h93" id="am"/><g id="m"><use transform="matrix(0.05,0,0,0.05,0,0)" xlink:href="#am"/><use transform="matrix(0.05,0,0,0.05,12,0)" xlink:href="#al"/><use transform="matrix(0.05,0,0,0.05,21,0)" xlink:href="#al"/><use transform="matrix(0.05,0,0,0.05,30,0)" xlink:href="#ae"/><use transform="matrix(0.05,0,0,0.05,40,0)" xlink:href="#aj"/><use transform="matrix(0.05,0,0,0.05,50,0)" xlink:href="#aa"/><use transform="matrix(0.05,0,0,0.05,60,0)" xlink:href="#Z"/></g><path d="M233-177c-1 41-23 64-60 70L243 0h-38l-65-103H63V0H30v-248c88 3 205-21 203 71zM63-129c60-2 137 13 137-47 0-61-80-42-137-45v92" id="an"/><path d="M210-169c-67 3-38 105-44 169h-31v-121c0-29-5-50-35-48C34-165 62-65 56 0H25l-1-190h30c1 10-1 24 2 32 10-44 99-50 107 0 11-21 27-35 58-36 85-2 47 119 55 194h-31v-121c0-29-5-49-35-48" id="ao"/><g id="n"><use transform="matrix(0.05,0,0,0.05,0,0)" xlink:href="#an"/><use transform="matrix(0.05,0,0,0.05,12.950000000000001,0)" xlink:href="#X"/><use transform="matrix(0.05,0,0,0.05,22.950000000000003,0)" xlink:href="#ao"/><use transform="matrix(0.05,0,0,0.05,37.900000000000006,0)" xlink:href="#ae"/><use transform="matrix(0.05,0,0,0.05,47.900000000000006,0)" xlink:href="#af"/><use transform="matrix(0.05,0,0,0.05,56.900000000000006,0)" xlink:href="#X"/></g><g id="o"><use transform="matrix(0.05,0,0,0.05,0,0)" xlink:href="#ac"/><use transform="matrix(0.05,0,0,0.05,10,0)" xlink:href="#X"/><use transform="matrix(0.05,0,0,0.05,20,0)" xlink:href="#Y"/><use transform="matrix(0.05,0,0,0.05,30,0)" xlink:href="#ad"/></g><path fill="#333" d="M15-91v-56l181-69v40L49-119l147 57v40" id="ap"/><path fill="#333" d="M25-224v-37h50v37H25zM25 0v-190h50V0H25" id="aq"/><path fill="#333" d="M135-194c87-1 58 113 63 194h-50c-7-57 23-157-34-157-59 0-34 97-39 157H25l-1-190h47c2 12-1 28 3 38 12-26 28-41 61-42" id="ar"/><path fill="#333" d="M190-63c-7 42-38 67-86 67-59 0-84-38-90-98-12-110 154-137 174-36l-49 2c-2-19-15-32-35-32-30 0-35 28-38 64-6 74 65 87 74 30" id="as"/><path fill="#333" d="M25 0v-261h50V0H25" id="at"/><path fill="#333" d="M85 4C-2 5 27-109 22-190h50c7 57-23 150 33 157 60-5 35-97 40-157h50l1 190h-47c-2-12 1-28-3-38-12 25-28 42-61 42" id="au"/><path fill="#333" d="M88-194c31-1 46 15 58 34l-1-101h50l1 261h-48c-2-10 0-23-3-31C134-8 116 4 84 4 32 4 16-41 15-95c0-56 19-97 73-99zm17 164c33 0 40-30 41-66 1-37-9-64-41-64s-38 30-39 65c0 43 13 65 39 65" id="av"/><path fill="#333" d="M185-48c-13 30-37 53-82 52C43 2 14-33 14-96s30-98 90-98c62 0 83 45 84 108H66c0 31 8 55 39 56 18 0 30-7 34-22zm-45-69c5-46-57-63-70-21-2 6-4 13-4 21h74" id="aw"/><path fill="#333" d="M15-22v-40l146-57-146-57v-40l181 69v56" id="ax"/><g id="p"><use transform="matrix(0.04938271604938272,0,0,0.04938271604938272,0,0)" xlink:href="#ap"/><use transform="matrix(0.04938271604938272,0,0,0.04938271604938272,10.370370370370372,0)" xlink:href="#ap"/><use transform="matrix(0.04938271604938272,0,0,0.04938271604938272,20.740740740740744,0)" xlink:href="#aq"/><use transform="matrix(0.04938271604938272,0,0,0.04938271604938272,25.679012345679016,0)" xlink:href="#ar"/><use transform="matrix(0.04938271604938272,0,0,0.04938271604938272,36.49382716049383,0)" xlink:href="#as"/><use transform="matrix(0.04938271604938272,0,0,0.04938271604938272,46.370370370370374,0)" xlink:href="#at"/><use transform="matrix(0.04938271604938272,0,0,0.04938271604938272,51.308641975308646,0)" xlink:href="#au"/><use transform="matrix(0.04938271604938272,0,0,0.04938271604938272,62.12345679012346,0)" xlink:href="#av"/><use transform="matrix(0.04938271604938272,0,0,0.04938271604938272,72.93827160493828,0)" xlink:href="#aw"/><use transform="matrix(0.04938271604938272,0,0,0.04938271604938272,82.81481481481482,0)" xlink:href="#ax"/><use transform="matrix(0.04938271604938272,0,0,0.04938271604938272,93.18518518518519,0)" xlink:href="#ax"/></g><g id="q"><use transform="matrix(0.05,0,0,0.05,0,0)" xlink:href="#am"/><use transform="matrix(0.05,0,0,0.05,12,0)" xlink:href="#ad"/><use transform="matrix(0.05,0,0,0.05,22,0)" xlink:href="#ad"/></g><g id="r"><use transform="matrix(0.05,0,0,0.05,0,0)" xlink:href="#ae"/><use transform="matrix(0.05,0,0,0.05,10,0)" xlink:href="#ai"/><use transform="matrix(0.05,0,0,0.05,20,0)" xlink:href="#ai"/><use transform="matrix(0.05,0,0,0.05,30,0)" xlink:href="#ae"/><use transform="matrix(0.05,0,0,0.05,40,0)" xlink:href="#W"/><use transform="matrix(0.05,0,0,0.05,45.95,0)" xlink:href="#Z"/><use transform="matrix(0.05,0,0,0.05,50.95,0)" xlink:href="#aj"/><use transform="matrix(0.05,0,0,0.05,60.95,0)" xlink:href="#aa"/><use transform="matrix(0.05,0,0,0.05,70.95,0)" xlink:href="#ag"/><use transform="matrix(0.05,0,0,0.05,74.9,0)" xlink:href="#Z"/><use transform="matrix(0.05,0,0,0.05,79.9,0)" xlink:href="#ak"/></g><path d="M24 0v-261h32V0H24" id="ay"/><path d="M135-143c-3-34-86-38-87 0 15 53 115 12 119 90S17 21 10-45l28-5c4 36 97 45 98 0-10-56-113-15-118-90-4-57 82-63 122-42 12 7 21 19 24 35" id="az"/><g id="s"><use transform="matrix(0.05,0,0,0.05,0,0)" xlink:href="#ad"/><use transform="matrix(0.05,0,0,0.05,10,0)" xlink:href="#X"/><use transform="matrix(0.05,0,0,0.05,20,0)" xlink:href="#Z"/><use transform="matrix(0.05,0,0,0.05,25,0)" xlink:href="#Y"/><use transform="matrix(0.05,0,0,0.05,35,0)" xlink:href="#ag"/><use transform="matrix(0.05,0,0,0.05,38.95,0)" xlink:href="#ay"/><use transform="matrix(0.05,0,0,0.05,42.900000000000006,0)" xlink:href="#az"/></g><g id="t"><use transform="matrix(0.05,0,0,0.05,0,0)" xlink:href="#am"/><use transform="matrix(0.05,0,0,0.05,12,0)" xlink:href="#ad"/><use transform="matrix(0.05,0,0,0.05,22,0)" xlink:href="#ad"/></g><g id="u"><use transform="matrix(0.05,0,0,0.05,0,0)" xlink:href="#Y"/><use transform="matrix(0.05,0,0,0.05,10,0)" xlink:href="#al"/><use transform="matrix(0.05,0,0,0.05,19,0)" xlink:href="#al"/><use transform="matrix(0.05,0,0,0.05,28,0)" xlink:href="#ae"/><use transform="matrix(0.05,0,0,0.05,38,0)" xlink:href="#aj"/><use transform="matrix(0.05,0,0,0.05,48,0)" xlink:href="#aa"/><use transform="matrix(0.05,0,0,0.05,58,0)" xlink:href="#Z"/></g><g id="v"><use transform="matrix(0.05,0,0,0.05,0,0)" xlink:href="#ad"/><use transform="matrix(0.05,0,0,0.05,10,0)" xlink:href="#X"/><use transform="matrix(0.05,0,0,0.05,20,0)" xlink:href="#Z"/><use transform="matrix(0.05,0,0,0.05,25,0)" xlink:href="#Y"/><use transform="matrix(0.05,0,0,0.05,35,0)" xlink:href="#ag"/><use transform="matrix(0.05,0,0,0.05,38.95,0)" xlink:href="#ay"/><use transform="matrix(0.05,0,0,0.05,42.900000000000006,0)" xlink:href="#az"/></g><path d="M106-169C34-169 62-67 57 0H25v-261h32l-1 103c12-21 28-36 61-36 89 0 53 116 60 194h-32v-121c2-32-8-49-39-48" id="aA"/><path d="M143 0L79-87 56-68V0H24v-261h32v163l83-92h37l-77 82L181 0h-38" id="aB"/><g id="w"><use transform="matrix(0.05,0,0,0.05,0,0)" xlink:href="#V"/><use transform="matrix(0.05,0,0,0.05,12.950000000000001,0)" xlink:href="#aA"/><use transform="matrix(0.05,0,0,0.05,22.950000000000003,0)" xlink:href="#X"/><use transform="matrix(0.05,0,0,0.05,32.95,0)" xlink:href="#al"/><use transform="matrix(0.05,0,0,0.05,41.95,0)" xlink:href="#aB"/></g><g id="x"><use transform="matrix(0.05,0,0,0.05,0,0)" xlink:href="#V"/><use transform="matrix(0.05,0,0,0.05,12.950000000000001,0)" xlink:href="#ay"/><use transform="matrix(0.05,0,0,0.05,16.900000000000002,0)" xlink:href="#ae"/><use transform="matrix(0.05,0,0,0.05,26.900000000000002,0)" xlink:href="#az"/><use transform="matrix(0.05,0,0,0.05,35.900000000000006,0)" xlink:href="#X"/></g><path d="M240 0l2-218c-23 76-54 145-80 218h-23L58-218 59 0H30v-248h44l77 211c21-75 51-140 76-211h43V0h-30" id="aC"/><g id="y"><use transform="matrix(0.05,0,0,0.05,0,0)" xlink:href="#aC"/><use transform="matrix(0.05,0,0,0.05,14.950000000000001,0)" xlink:href="#Y"/><use transform="matrix(0.05,0,0,0.05,24.950000000000003,0)" xlink:href="#ag"/><use transform="matrix(0.05,0,0,0.05,28.900000000000002,0)" xlink:href="#aa"/><use transform="matrix(0.05,0,0,0.05,38.900000000000006,0)" xlink:href="#Z"/><use transform="matrix(0.05,0,0,0.05,43.900000000000006,0)" xlink:href="#X"/><use transform="matrix(0.05,0,0,0.05,53.900000000000006,0)" xlink:href="#aa"/><use transform="matrix(0.05,0,0,0.05,63.900000000000006,0)" xlink:href="#Y"/><use transform="matrix(0.05,0,0,0.05,73.9,0)" xlink:href="#aa"/><use transform="matrix(0.05,0,0,0.05,83.9,0)" xlink:href="#al"/><use transform="matrix(0.05,0,0,0.05,92.9,0)" xlink:href="#X"/></g><path d="M101-234c-31-9-42 10-38 44h38v23H63V0H32v-167H5v-23h27c-7-52 17-82 69-68v24" id="aD"/><g id="z"><use transform="matrix(0.05,0,0,0.05,0,0)" xlink:href="#ae"/><use transform="matrix(0.05,0,0,0.05,10,0)" xlink:href="#aD"/></g><g id="A"><use transform="matrix(0.05,0,0,0.05,0,0)" xlink:href="#Z"/><use transform="matrix(0.05,0,0,0.05,5,0)" xlink:href="#aA"/><use transform="matrix(0.05,0,0,0.05,15,0)" xlink:href="#X"/></g><g id="B"><use transform="matrix(0.05,0,0,0.05,0,0)" xlink:href="#az"/><use transform="matrix(0.05,0,0,0.05,9,0)" xlink:href="#ak"/><use transform="matrix(0.05,0,0,0.05,18,0)" xlink:href="#az"/><use transform="matrix(0.05,0,0,0.05,27,0)" xlink:href="#Z"/><use transform="matrix(0.05,0,0,0.05,32,0)" xlink:href="#X"/><use transform="matrix(0.05,0,0,0.05,42,0)" xlink:href="#ao"/></g><g id="C"><use transform="matrix(0.05,0,0,0.05,0,0)" xlink:href="#V"/><use transform="matrix(0.05,0,0,0.05,12.950000000000001,0)" xlink:href="#aA"/><use transform="matrix(0.05,0,0,0.05,22.950000000000003,0)" xlink:href="#X"/><use transform="matrix(0.05,0,0,0.05,32.95,0)" xlink:href="#al"/><use transform="matrix(0.05,0,0,0.05,41.95,0)" xlink:href="#aB"/></g><g id="D"><use transform="matrix(0.05,0,0,0.05,0,0)" xlink:href="#ac"/><use transform="matrix(0.05,0,0,0.05,10,0)" xlink:href="#X"/><use transform="matrix(0.05,0,0,0.05,20,0)" xlink:href="#Y"/><use transform="matrix(0.05,0,0,0.05,30,0)" xlink:href="#ad"/><use transform="matrix(0.05,0,0,0.05,40,0)" xlink:href="#az"/></g><g id="E"><use transform="matrix(0.04938271604938272,0,0,0.04938271604938272,0,0)" xlink:href="#ap"/><use transform="matrix(0.04938271604938272,0,0,0.04938271604938272,10.370370370370372,0)" xlink:href="#ap"/><use transform="matrix(0.04938271604938272,0,0,0.04938271604938272,20.740740740740744,0)" xlink:href="#aq"/><use transform="matrix(0.04938271604938272,0,0,0.04938271604938272,25.679012345679016,0)" xlink:href="#ar"/><use transform="matrix(0.04938271604938272,0,0,0.04938271604938272,36.49382716049383,0)" xlink:href="#as"/><use transform="matrix(0.04938271604938272,0,0,0.04938271604938272,46.370370370370374,0)" xlink:href="#at"/><use transform="matrix(0.04938271604938272,0,0,0.04938271604938272,51.308641975308646,0)" xlink:href="#au"/><use transform="matrix(0.04938271604938272,0,0,0.04938271604938272,62.12345679012346,0)" xlink:href="#av"/><use transform="matrix(0.04938271604938272,0,0,0.04938271604938272,72.93827160493828,0)" xlink:href="#aw"/><use transform="matrix(0.04938271604938272,0,0,0.04938271604938272,82.81481481481482,0)" xlink:href="#ax"/><use transform="matrix(0.04938271604938272,0,0,0.04938271604938272,93.18518518518519,0)" xlink:href="#ax"/></g></defs></g></svg>